<?xml version="1.0" encoding="utf-8" standalone="no"?>
<!DOCTYPE svg PUBLIC "-//W3C//DTD SVG 1.1//EN"
  "http://www.w3.org/Graphics/SVG/1.1/DTD/svg11.dtd">
<svg xmlns:xlink="http://www.w3.org/1999/xlink" width="400.523438pt" height="226.19625pt" viewBox="0 0 400.523438 226.19625" xmlns="http://www.w3.org/2000/svg" version="1.1">
 <metadata>
  <rdf:RDF xmlns:dc="http://purl.org/dc/elements/1.1/" xmlns:cc="http://creativecommons.org/ns#" xmlns:rdf="http://www.w3.org/1999/02/22-rdf-syntax-ns#">
   <cc:Work>
    <dc:type rdf:resource="http://purl.org/dc/dcmitype/StillImage"/>
    <dc:date>2024-11-21T22:16:44.140669</dc:date>
    <dc:format>image/svg+xml</dc:format>
    <dc:creator>
     <cc:Agent>
      <dc:title>Matplotlib v3.9.2, https://matplotlib.org/</dc:title>
     </cc:Agent>
    </dc:creator>
   </cc:Work>
  </rdf:RDF>
 </metadata>
 <defs>
  <style type="text/css">*{stroke-linejoin: round; stroke-linecap: butt}</style>
 </defs>
 <g id="figure_1">
  <g id="patch_1">
   <path d="M 0 226.19625 
L 400.523438 226.19625 
L 400.523438 0 
L 0 0 
z
" style="fill: #ffffff"/>
  </g>
  <g id="axes_1">
   <g id="patch_2">
    <path d="M 58.523438 188.64 
L 393.323438 188.64 
L 393.323438 22.32 
L 58.523438 22.32 
z
" style="fill: #ffffff"/>
   </g>
   <g id="matplotlib.axis_1">
    <g id="xtick_1">
     <g id="line2d_1">
      <defs>
       <path id="me54a0448dc" d="M 0 0 
L 0 3.5 
" style="stroke: #000000; stroke-width: 0.8"/>
      </defs>
      <g>
       <use xlink:href="#me54a0448dc" x="61.567074" y="188.64" style="stroke: #000000; stroke-width: 0.8"/>
      </g>
     </g>
     <g id="text_1">
      <!-- 20 -->
      <g transform="translate(55.204574 203.238438) scale(0.1 -0.1)">
       <defs>
        <path id="DejaVuSans-32" d="M 1228 531 
L 3431 531 
L 3431 0 
L 469 0 
L 469 531 
Q 828 903 1448 1529 
Q 2069 2156 2228 2338 
Q 2531 2678 2651 2914 
Q 2772 3150 2772 3378 
Q 2772 3750 2511 3984 
Q 2250 4219 1831 4219 
Q 1534 4219 1204 4116 
Q 875 4013 500 3803 
L 500 4441 
Q 881 4594 1212 4672 
Q 1544 4750 1819 4750 
Q 2544 4750 2975 4387 
Q 3406 4025 3406 3419 
Q 3406 3131 3298 2873 
Q 3191 2616 2906 2266 
Q 2828 2175 2409 1742 
Q 1991 1309 1228 531 
z
" transform="scale(0.015625)"/>
        <path id="DejaVuSans-30" d="M 2034 4250 
Q 1547 4250 1301 3770 
Q 1056 3291 1056 2328 
Q 1056 1369 1301 889 
Q 1547 409 2034 409 
Q 2525 409 2770 889 
Q 3016 1369 3016 2328 
Q 3016 3291 2770 3770 
Q 2525 4250 2034 4250 
z
M 2034 4750 
Q 2819 4750 3233 4129 
Q 3647 3509 3647 2328 
Q 3647 1150 3233 529 
Q 2819 -91 2034 -91 
Q 1250 -91 836 529 
Q 422 1150 422 2328 
Q 422 3509 836 4129 
Q 1250 4750 2034 4750 
z
" transform="scale(0.015625)"/>
       </defs>
       <use xlink:href="#DejaVuSans-32"/>
       <use xlink:href="#DejaVuSans-30" x="63.623047"/>
      </g>
     </g>
    </g>
    <g id="xtick_2">
     <g id="line2d_2">
      <g>
       <use xlink:href="#me54a0448dc" x="110.265256" y="188.64" style="stroke: #000000; stroke-width: 0.8"/>
      </g>
     </g>
     <g id="text_2">
      <!-- 40 -->
      <g transform="translate(103.902756 203.238438) scale(0.1 -0.1)">
       <defs>
        <path id="DejaVuSans-34" d="M 2419 4116 
L 825 1625 
L 2419 1625 
L 2419 4116 
z
M 2253 4666 
L 3047 4666 
L 3047 1625 
L 3713 1625 
L 3713 1100 
L 3047 1100 
L 3047 0 
L 2419 0 
L 2419 1100 
L 313 1100 
L 313 1709 
L 2253 4666 
z
" transform="scale(0.015625)"/>
       </defs>
       <use xlink:href="#DejaVuSans-34"/>
       <use xlink:href="#DejaVuSans-30" x="63.623047"/>
      </g>
     </g>
    </g>
    <g id="xtick_3">
     <g id="line2d_3">
      <g>
       <use xlink:href="#me54a0448dc" x="158.963438" y="188.64" style="stroke: #000000; stroke-width: 0.8"/>
      </g>
     </g>
     <g id="text_3">
      <!-- 60 -->
      <g transform="translate(152.600938 203.238438) scale(0.1 -0.1)">
       <defs>
        <path id="DejaVuSans-36" d="M 2113 2584 
Q 1688 2584 1439 2293 
Q 1191 2003 1191 1497 
Q 1191 994 1439 701 
Q 1688 409 2113 409 
Q 2538 409 2786 701 
Q 3034 994 3034 1497 
Q 3034 2003 2786 2293 
Q 2538 2584 2113 2584 
z
M 3366 4563 
L 3366 3988 
Q 3128 4100 2886 4159 
Q 2644 4219 2406 4219 
Q 1781 4219 1451 3797 
Q 1122 3375 1075 2522 
Q 1259 2794 1537 2939 
Q 1816 3084 2150 3084 
Q 2853 3084 3261 2657 
Q 3669 2231 3669 1497 
Q 3669 778 3244 343 
Q 2819 -91 2113 -91 
Q 1303 -91 875 529 
Q 447 1150 447 2328 
Q 447 3434 972 4092 
Q 1497 4750 2381 4750 
Q 2619 4750 2861 4703 
Q 3103 4656 3366 4563 
z
" transform="scale(0.015625)"/>
       </defs>
       <use xlink:href="#DejaVuSans-36"/>
       <use xlink:href="#DejaVuSans-30" x="63.623047"/>
      </g>
     </g>
    </g>
    <g id="xtick_4">
     <g id="line2d_4">
      <g>
       <use xlink:href="#me54a0448dc" x="207.661619" y="188.64" style="stroke: #000000; stroke-width: 0.8"/>
      </g>
     </g>
     <g id="text_4">
      <!-- 80 -->
      <g transform="translate(201.299119 203.238438) scale(0.1 -0.1)">
       <defs>
        <path id="DejaVuSans-38" d="M 2034 2216 
Q 1584 2216 1326 1975 
Q 1069 1734 1069 1313 
Q 1069 891 1326 650 
Q 1584 409 2034 409 
Q 2484 409 2743 651 
Q 3003 894 3003 1313 
Q 3003 1734 2745 1975 
Q 2488 2216 2034 2216 
z
M 1403 2484 
Q 997 2584 770 2862 
Q 544 3141 544 3541 
Q 544 4100 942 4425 
Q 1341 4750 2034 4750 
Q 2731 4750 3128 4425 
Q 3525 4100 3525 3541 
Q 3525 3141 3298 2862 
Q 3072 2584 2669 2484 
Q 3125 2378 3379 2068 
Q 3634 1759 3634 1313 
Q 3634 634 3220 271 
Q 2806 -91 2034 -91 
Q 1263 -91 848 271 
Q 434 634 434 1313 
Q 434 1759 690 2068 
Q 947 2378 1403 2484 
z
M 1172 3481 
Q 1172 3119 1398 2916 
Q 1625 2713 2034 2713 
Q 2441 2713 2670 2916 
Q 2900 3119 2900 3481 
Q 2900 3844 2670 4047 
Q 2441 4250 2034 4250 
Q 1625 4250 1398 4047 
Q 1172 3844 1172 3481 
z
" transform="scale(0.015625)"/>
       </defs>
       <use xlink:href="#DejaVuSans-38"/>
       <use xlink:href="#DejaVuSans-30" x="63.623047"/>
      </g>
     </g>
    </g>
    <g id="xtick_5">
     <g id="line2d_5">
      <g>
       <use xlink:href="#me54a0448dc" x="256.359801" y="188.64" style="stroke: #000000; stroke-width: 0.8"/>
      </g>
     </g>
     <g id="text_5">
      <!-- 100 -->
      <g transform="translate(246.816051 203.238438) scale(0.1 -0.1)">
       <defs>
        <path id="DejaVuSans-31" d="M 794 531 
L 1825 531 
L 1825 4091 
L 703 3866 
L 703 4441 
L 1819 4666 
L 2450 4666 
L 2450 531 
L 3481 531 
L 3481 0 
L 794 0 
L 794 531 
z
" transform="scale(0.015625)"/>
       </defs>
       <use xlink:href="#DejaVuSans-31"/>
       <use xlink:href="#DejaVuSans-30" x="63.623047"/>
       <use xlink:href="#DejaVuSans-30" x="127.246094"/>
      </g>
     </g>
    </g>
    <g id="xtick_6">
     <g id="line2d_6">
      <g>
       <use xlink:href="#me54a0448dc" x="305.057983" y="188.64" style="stroke: #000000; stroke-width: 0.8"/>
      </g>
     </g>
     <g id="text_6">
      <!-- 120 -->
      <g transform="translate(295.514233 203.238438) scale(0.1 -0.1)">
       <use xlink:href="#DejaVuSans-31"/>
       <use xlink:href="#DejaVuSans-32" x="63.623047"/>
       <use xlink:href="#DejaVuSans-30" x="127.246094"/>
      </g>
     </g>
    </g>
    <g id="xtick_7">
     <g id="line2d_7">
      <g>
       <use xlink:href="#me54a0448dc" x="353.756165" y="188.64" style="stroke: #000000; stroke-width: 0.8"/>
      </g>
     </g>
     <g id="text_7">
      <!-- 140 -->
      <g transform="translate(344.212415 203.238438) scale(0.1 -0.1)">
       <use xlink:href="#DejaVuSans-31"/>
       <use xlink:href="#DejaVuSans-34" x="63.623047"/>
       <use xlink:href="#DejaVuSans-30" x="127.246094"/>
      </g>
     </g>
    </g>
    <g id="text_8">
     <!-- Echo (Samples) -->
     <g transform="translate(186.942969 216.916563) scale(0.1 -0.1)">
      <defs>
       <path id="DejaVuSans-45" d="M 628 4666 
L 3578 4666 
L 3578 4134 
L 1259 4134 
L 1259 2753 
L 3481 2753 
L 3481 2222 
L 1259 2222 
L 1259 531 
L 3634 531 
L 3634 0 
L 628 0 
L 628 4666 
z
" transform="scale(0.015625)"/>
       <path id="DejaVuSans-63" d="M 3122 3366 
L 3122 2828 
Q 2878 2963 2633 3030 
Q 2388 3097 2138 3097 
Q 1578 3097 1268 2742 
Q 959 2388 959 1747 
Q 959 1106 1268 751 
Q 1578 397 2138 397 
Q 2388 397 2633 464 
Q 2878 531 3122 666 
L 3122 134 
Q 2881 22 2623 -34 
Q 2366 -91 2075 -91 
Q 1284 -91 818 406 
Q 353 903 353 1747 
Q 353 2603 823 3093 
Q 1294 3584 2113 3584 
Q 2378 3584 2631 3529 
Q 2884 3475 3122 3366 
z
" transform="scale(0.015625)"/>
       <path id="DejaVuSans-68" d="M 3513 2113 
L 3513 0 
L 2938 0 
L 2938 2094 
Q 2938 2591 2744 2837 
Q 2550 3084 2163 3084 
Q 1697 3084 1428 2787 
Q 1159 2491 1159 1978 
L 1159 0 
L 581 0 
L 581 4863 
L 1159 4863 
L 1159 2956 
Q 1366 3272 1645 3428 
Q 1925 3584 2291 3584 
Q 2894 3584 3203 3211 
Q 3513 2838 3513 2113 
z
" transform="scale(0.015625)"/>
       <path id="DejaVuSans-6f" d="M 1959 3097 
Q 1497 3097 1228 2736 
Q 959 2375 959 1747 
Q 959 1119 1226 758 
Q 1494 397 1959 397 
Q 2419 397 2687 759 
Q 2956 1122 2956 1747 
Q 2956 2369 2687 2733 
Q 2419 3097 1959 3097 
z
M 1959 3584 
Q 2709 3584 3137 3096 
Q 3566 2609 3566 1747 
Q 3566 888 3137 398 
Q 2709 -91 1959 -91 
Q 1206 -91 779 398 
Q 353 888 353 1747 
Q 353 2609 779 3096 
Q 1206 3584 1959 3584 
z
" transform="scale(0.015625)"/>
       <path id="DejaVuSans-20" transform="scale(0.015625)"/>
       <path id="DejaVuSans-28" d="M 1984 4856 
Q 1566 4138 1362 3434 
Q 1159 2731 1159 2009 
Q 1159 1288 1364 580 
Q 1569 -128 1984 -844 
L 1484 -844 
Q 1016 -109 783 600 
Q 550 1309 550 2009 
Q 550 2706 781 3412 
Q 1013 4119 1484 4856 
L 1984 4856 
z
" transform="scale(0.015625)"/>
       <path id="DejaVuSans-53" d="M 3425 4513 
L 3425 3897 
Q 3066 4069 2747 4153 
Q 2428 4238 2131 4238 
Q 1616 4238 1336 4038 
Q 1056 3838 1056 3469 
Q 1056 3159 1242 3001 
Q 1428 2844 1947 2747 
L 2328 2669 
Q 3034 2534 3370 2195 
Q 3706 1856 3706 1288 
Q 3706 609 3251 259 
Q 2797 -91 1919 -91 
Q 1588 -91 1214 -16 
Q 841 59 441 206 
L 441 856 
Q 825 641 1194 531 
Q 1563 422 1919 422 
Q 2459 422 2753 634 
Q 3047 847 3047 1241 
Q 3047 1584 2836 1778 
Q 2625 1972 2144 2069 
L 1759 2144 
Q 1053 2284 737 2584 
Q 422 2884 422 3419 
Q 422 4038 858 4394 
Q 1294 4750 2059 4750 
Q 2388 4750 2728 4690 
Q 3069 4631 3425 4513 
z
" transform="scale(0.015625)"/>
       <path id="DejaVuSans-61" d="M 2194 1759 
Q 1497 1759 1228 1600 
Q 959 1441 959 1056 
Q 959 750 1161 570 
Q 1363 391 1709 391 
Q 2188 391 2477 730 
Q 2766 1069 2766 1631 
L 2766 1759 
L 2194 1759 
z
M 3341 1997 
L 3341 0 
L 2766 0 
L 2766 531 
Q 2569 213 2275 61 
Q 1981 -91 1556 -91 
Q 1019 -91 701 211 
Q 384 513 384 1019 
Q 384 1609 779 1909 
Q 1175 2209 1959 2209 
L 2766 2209 
L 2766 2266 
Q 2766 2663 2505 2880 
Q 2244 3097 1772 3097 
Q 1472 3097 1187 3025 
Q 903 2953 641 2809 
L 641 3341 
Q 956 3463 1253 3523 
Q 1550 3584 1831 3584 
Q 2591 3584 2966 3190 
Q 3341 2797 3341 1997 
z
" transform="scale(0.015625)"/>
       <path id="DejaVuSans-6d" d="M 3328 2828 
Q 3544 3216 3844 3400 
Q 4144 3584 4550 3584 
Q 5097 3584 5394 3201 
Q 5691 2819 5691 2113 
L 5691 0 
L 5113 0 
L 5113 2094 
Q 5113 2597 4934 2840 
Q 4756 3084 4391 3084 
Q 3944 3084 3684 2787 
Q 3425 2491 3425 1978 
L 3425 0 
L 2847 0 
L 2847 2094 
Q 2847 2600 2669 2842 
Q 2491 3084 2119 3084 
Q 1678 3084 1418 2786 
Q 1159 2488 1159 1978 
L 1159 0 
L 581 0 
L 581 3500 
L 1159 3500 
L 1159 2956 
Q 1356 3278 1631 3431 
Q 1906 3584 2284 3584 
Q 2666 3584 2933 3390 
Q 3200 3197 3328 2828 
z
" transform="scale(0.015625)"/>
       <path id="DejaVuSans-70" d="M 1159 525 
L 1159 -1331 
L 581 -1331 
L 581 3500 
L 1159 3500 
L 1159 2969 
Q 1341 3281 1617 3432 
Q 1894 3584 2278 3584 
Q 2916 3584 3314 3078 
Q 3713 2572 3713 1747 
Q 3713 922 3314 415 
Q 2916 -91 2278 -91 
Q 1894 -91 1617 61 
Q 1341 213 1159 525 
z
M 3116 1747 
Q 3116 2381 2855 2742 
Q 2594 3103 2138 3103 
Q 1681 3103 1420 2742 
Q 1159 2381 1159 1747 
Q 1159 1113 1420 752 
Q 1681 391 2138 391 
Q 2594 391 2855 752 
Q 3116 1113 3116 1747 
z
" transform="scale(0.015625)"/>
       <path id="DejaVuSans-6c" d="M 603 4863 
L 1178 4863 
L 1178 0 
L 603 0 
L 603 4863 
z
" transform="scale(0.015625)"/>
       <path id="DejaVuSans-65" d="M 3597 1894 
L 3597 1613 
L 953 1613 
Q 991 1019 1311 708 
Q 1631 397 2203 397 
Q 2534 397 2845 478 
Q 3156 559 3463 722 
L 3463 178 
Q 3153 47 2828 -22 
Q 2503 -91 2169 -91 
Q 1331 -91 842 396 
Q 353 884 353 1716 
Q 353 2575 817 3079 
Q 1281 3584 2069 3584 
Q 2775 3584 3186 3129 
Q 3597 2675 3597 1894 
z
M 3022 2063 
Q 3016 2534 2758 2815 
Q 2500 3097 2075 3097 
Q 1594 3097 1305 2825 
Q 1016 2553 972 2059 
L 3022 2063 
z
" transform="scale(0.015625)"/>
       <path id="DejaVuSans-73" d="M 2834 3397 
L 2834 2853 
Q 2591 2978 2328 3040 
Q 2066 3103 1784 3103 
Q 1356 3103 1142 2972 
Q 928 2841 928 2578 
Q 928 2378 1081 2264 
Q 1234 2150 1697 2047 
L 1894 2003 
Q 2506 1872 2764 1633 
Q 3022 1394 3022 966 
Q 3022 478 2636 193 
Q 2250 -91 1575 -91 
Q 1294 -91 989 -36 
Q 684 19 347 128 
L 347 722 
Q 666 556 975 473 
Q 1284 391 1588 391 
Q 1994 391 2212 530 
Q 2431 669 2431 922 
Q 2431 1156 2273 1281 
Q 2116 1406 1581 1522 
L 1381 1569 
Q 847 1681 609 1914 
Q 372 2147 372 2553 
Q 372 3047 722 3315 
Q 1072 3584 1716 3584 
Q 2034 3584 2315 3537 
Q 2597 3491 2834 3397 
z
" transform="scale(0.015625)"/>
       <path id="DejaVuSans-29" d="M 513 4856 
L 1013 4856 
Q 1481 4119 1714 3412 
Q 1947 2706 1947 2009 
Q 1947 1309 1714 600 
Q 1481 -109 1013 -844 
L 513 -844 
Q 928 -128 1133 580 
Q 1338 1288 1338 2009 
Q 1338 2731 1133 3434 
Q 928 4138 513 4856 
z
" transform="scale(0.015625)"/>
      </defs>
      <use xlink:href="#DejaVuSans-45"/>
      <use xlink:href="#DejaVuSans-63" x="63.183594"/>
      <use xlink:href="#DejaVuSans-68" x="118.164062"/>
      <use xlink:href="#DejaVuSans-6f" x="181.542969"/>
      <use xlink:href="#DejaVuSans-20" x="242.724609"/>
      <use xlink:href="#DejaVuSans-28" x="274.511719"/>
      <use xlink:href="#DejaVuSans-53" x="313.525391"/>
      <use xlink:href="#DejaVuSans-61" x="377.001953"/>
      <use xlink:href="#DejaVuSans-6d" x="438.28125"/>
      <use xlink:href="#DejaVuSans-70" x="535.693359"/>
      <use xlink:href="#DejaVuSans-6c" x="599.169922"/>
      <use xlink:href="#DejaVuSans-65" x="626.953125"/>
      <use xlink:href="#DejaVuSans-73" x="688.476562"/>
      <use xlink:href="#DejaVuSans-29" x="740.576172"/>
     </g>
    </g>
   </g>
   <g id="matplotlib.axis_2">
    <g id="ytick_1">
     <g id="line2d_8">
      <defs>
       <path id="mbefe16909b" d="M 0 0 
L -3.5 0 
" style="stroke: #000000; stroke-width: 0.8"/>
      </defs>
      <g>
       <use xlink:href="#mbefe16909b" x="58.523438" y="182.856784" style="stroke: #000000; stroke-width: 0.8"/>
      </g>
     </g>
     <g id="text_9">
      <!-- −0.05 -->
      <g transform="translate(20.878125 186.656003) scale(0.1 -0.1)">
       <defs>
        <path id="DejaVuSans-2212" d="M 678 2272 
L 4684 2272 
L 4684 1741 
L 678 1741 
L 678 2272 
z
" transform="scale(0.015625)"/>
        <path id="DejaVuSans-2e" d="M 684 794 
L 1344 794 
L 1344 0 
L 684 0 
L 684 794 
z
" transform="scale(0.015625)"/>
        <path id="DejaVuSans-35" d="M 691 4666 
L 3169 4666 
L 3169 4134 
L 1269 4134 
L 1269 2991 
Q 1406 3038 1543 3061 
Q 1681 3084 1819 3084 
Q 2600 3084 3056 2656 
Q 3513 2228 3513 1497 
Q 3513 744 3044 326 
Q 2575 -91 1722 -91 
Q 1428 -91 1123 -41 
Q 819 9 494 109 
L 494 744 
Q 775 591 1075 516 
Q 1375 441 1709 441 
Q 2250 441 2565 725 
Q 2881 1009 2881 1497 
Q 2881 1984 2565 2268 
Q 2250 2553 1709 2553 
Q 1456 2553 1204 2497 
Q 953 2441 691 2322 
L 691 4666 
z
" transform="scale(0.015625)"/>
       </defs>
       <use xlink:href="#DejaVuSans-2212"/>
       <use xlink:href="#DejaVuSans-30" x="83.789062"/>
       <use xlink:href="#DejaVuSans-2e" x="147.412109"/>
       <use xlink:href="#DejaVuSans-30" x="179.199219"/>
       <use xlink:href="#DejaVuSans-35" x="242.822266"/>
      </g>
     </g>
    </g>
    <g id="ytick_2">
     <g id="line2d_9">
      <g>
       <use xlink:href="#mbefe16909b" x="58.523438" y="147.717358" style="stroke: #000000; stroke-width: 0.8"/>
      </g>
     </g>
     <g id="text_10">
      <!-- 0.00 -->
      <g transform="translate(29.257813 151.516577) scale(0.1 -0.1)">
       <use xlink:href="#DejaVuSans-30"/>
       <use xlink:href="#DejaVuSans-2e" x="63.623047"/>
       <use xlink:href="#DejaVuSans-30" x="95.410156"/>
       <use xlink:href="#DejaVuSans-30" x="159.033203"/>
      </g>
     </g>
    </g>
    <g id="ytick_3">
     <g id="line2d_10">
      <g>
       <use xlink:href="#mbefe16909b" x="58.523438" y="112.577932" style="stroke: #000000; stroke-width: 0.8"/>
      </g>
     </g>
     <g id="text_11">
      <!-- 0.05 -->
      <g transform="translate(29.257813 116.377151) scale(0.1 -0.1)">
       <use xlink:href="#DejaVuSans-30"/>
       <use xlink:href="#DejaVuSans-2e" x="63.623047"/>
       <use xlink:href="#DejaVuSans-30" x="95.410156"/>
       <use xlink:href="#DejaVuSans-35" x="159.033203"/>
      </g>
     </g>
    </g>
    <g id="ytick_4">
     <g id="line2d_11">
      <g>
       <use xlink:href="#mbefe16909b" x="58.523438" y="77.438506" style="stroke: #000000; stroke-width: 0.8"/>
      </g>
     </g>
     <g id="text_12">
      <!-- 0.10 -->
      <g transform="translate(29.257813 81.237725) scale(0.1 -0.1)">
       <use xlink:href="#DejaVuSans-30"/>
       <use xlink:href="#DejaVuSans-2e" x="63.623047"/>
       <use xlink:href="#DejaVuSans-31" x="95.410156"/>
       <use xlink:href="#DejaVuSans-30" x="159.033203"/>
      </g>
     </g>
    </g>
    <g id="ytick_5">
     <g id="line2d_12">
      <g>
       <use xlink:href="#mbefe16909b" x="58.523438" y="42.29908" style="stroke: #000000; stroke-width: 0.8"/>
      </g>
     </g>
     <g id="text_13">
      <!-- 0.15 -->
      <g transform="translate(29.257813 46.098299) scale(0.1 -0.1)">
       <use xlink:href="#DejaVuSans-30"/>
       <use xlink:href="#DejaVuSans-2e" x="63.623047"/>
       <use xlink:href="#DejaVuSans-31" x="95.410156"/>
       <use xlink:href="#DejaVuSans-35" x="159.033203"/>
      </g>
     </g>
    </g>
    <g id="text_14">
     <!-- Cepstrum Value -->
     <g transform="translate(14.798438 145.201875) rotate(-90) scale(0.1 -0.1)">
      <defs>
       <path id="DejaVuSans-43" d="M 4122 4306 
L 4122 3641 
Q 3803 3938 3442 4084 
Q 3081 4231 2675 4231 
Q 1875 4231 1450 3742 
Q 1025 3253 1025 2328 
Q 1025 1406 1450 917 
Q 1875 428 2675 428 
Q 3081 428 3442 575 
Q 3803 722 4122 1019 
L 4122 359 
Q 3791 134 3420 21 
Q 3050 -91 2638 -91 
Q 1578 -91 968 557 
Q 359 1206 359 2328 
Q 359 3453 968 4101 
Q 1578 4750 2638 4750 
Q 3056 4750 3426 4639 
Q 3797 4528 4122 4306 
z
" transform="scale(0.015625)"/>
       <path id="DejaVuSans-74" d="M 1172 4494 
L 1172 3500 
L 2356 3500 
L 2356 3053 
L 1172 3053 
L 1172 1153 
Q 1172 725 1289 603 
Q 1406 481 1766 481 
L 2356 481 
L 2356 0 
L 1766 0 
Q 1100 0 847 248 
Q 594 497 594 1153 
L 594 3053 
L 172 3053 
L 172 3500 
L 594 3500 
L 594 4494 
L 1172 4494 
z
" transform="scale(0.015625)"/>
       <path id="DejaVuSans-72" d="M 2631 2963 
Q 2534 3019 2420 3045 
Q 2306 3072 2169 3072 
Q 1681 3072 1420 2755 
Q 1159 2438 1159 1844 
L 1159 0 
L 581 0 
L 581 3500 
L 1159 3500 
L 1159 2956 
Q 1341 3275 1631 3429 
Q 1922 3584 2338 3584 
Q 2397 3584 2469 3576 
Q 2541 3569 2628 3553 
L 2631 2963 
z
" transform="scale(0.015625)"/>
       <path id="DejaVuSans-75" d="M 544 1381 
L 544 3500 
L 1119 3500 
L 1119 1403 
Q 1119 906 1312 657 
Q 1506 409 1894 409 
Q 2359 409 2629 706 
Q 2900 1003 2900 1516 
L 2900 3500 
L 3475 3500 
L 3475 0 
L 2900 0 
L 2900 538 
Q 2691 219 2414 64 
Q 2138 -91 1772 -91 
Q 1169 -91 856 284 
Q 544 659 544 1381 
z
M 1991 3584 
L 1991 3584 
z
" transform="scale(0.015625)"/>
       <path id="DejaVuSans-56" d="M 1831 0 
L 50 4666 
L 709 4666 
L 2188 738 
L 3669 4666 
L 4325 4666 
L 2547 0 
L 1831 0 
z
" transform="scale(0.015625)"/>
      </defs>
      <use xlink:href="#DejaVuSans-43"/>
      <use xlink:href="#DejaVuSans-65" x="69.824219"/>
      <use xlink:href="#DejaVuSans-70" x="131.347656"/>
      <use xlink:href="#DejaVuSans-73" x="194.824219"/>
      <use xlink:href="#DejaVuSans-74" x="246.923828"/>
      <use xlink:href="#DejaVuSans-72" x="286.132812"/>
      <use xlink:href="#DejaVuSans-75" x="327.246094"/>
      <use xlink:href="#DejaVuSans-6d" x="390.625"/>
      <use xlink:href="#DejaVuSans-20" x="488.037109"/>
      <use xlink:href="#DejaVuSans-56" x="519.824219"/>
      <use xlink:href="#DejaVuSans-61" x="580.482422"/>
      <use xlink:href="#DejaVuSans-6c" x="641.761719"/>
      <use xlink:href="#DejaVuSans-75" x="669.544922"/>
      <use xlink:href="#DejaVuSans-65" x="732.923828"/>
     </g>
    </g>
   </g>
   <g id="line2d_13">
    <path d="M 73.741619 135.322903 
L 76.176528 147.790074 
L 78.611438 134.360522 
L 81.046347 137.067651 
L 83.481256 142.20108 
L 85.916165 143.182106 
L 88.351074 148.859097 
L 90.785983 143.742579 
L 93.220892 137.252209 
L 95.655801 147.551445 
L 98.09071 143.807791 
L 100.525619 136.89821 
L 102.960528 137.456626 
L 105.395438 135.311124 
L 107.830347 147.165505 
L 110.265256 145.463426 
L 112.700165 140.418096 
L 115.135074 136.034176 
L 117.569983 126.374813 
L 120.004892 132.797635 
L 122.439801 128.581284 
L 124.87471 146.355907 
L 127.309619 143.634297 
L 129.744528 153.801904 
L 132.179438 157.675133 
L 134.614347 153.822555 
L 137.049256 159.67088 
L 139.484165 147.982373 
L 141.919074 157.552989 
L 144.353983 143.749932 
L 146.788892 149.559041 
L 149.223801 144.637602 
L 151.65871 152.943224 
L 154.093619 154.874996 
L 156.528528 149.556236 
L 158.963438 156.799304 
L 161.398347 155.78742 
L 163.833256 146.358413 
L 166.268165 155.098187 
L 168.703074 165.488052 
L 171.137983 159.790714 
L 173.572892 159.025166 
L 176.007801 153.932014 
L 178.44271 150.525178 
L 180.877619 152.025945 
L 183.312528 155.649193 
L 185.747438 156.044644 
L 188.182347 152.203473 
L 190.617256 147.650085 
L 193.052165 150.968132 
L 195.487074 152.537219 
L 197.921983 154.734593 
L 200.356892 158.523429 
L 202.791801 158.92611 
L 205.22671 144.007782 
L 207.661619 156.08045 
L 210.096528 147.531139 
L 212.531438 149.050441 
L 214.966347 148.962645 
L 217.401256 146.862551 
L 219.836165 155.225226 
L 222.271074 154.657478 
L 224.705983 155.887112 
L 227.140892 150.594409 
L 229.575801 151.27645 
L 232.01071 144.986315 
L 234.445619 157.002727 
L 236.880528 154.848567 
L 239.315438 153.674255 
L 241.750347 151.692074 
L 244.185256 159.681117 
L 246.620165 152.695663 
L 249.055074 149.477709 
L 251.489983 146.511487 
L 253.924892 150.241362 
L 256.359801 157.527215 
L 258.79471 154.138401 
L 261.229619 153.700841 
L 263.664528 156.439128 
L 266.099438 154.524458 
L 268.534347 158.319327 
L 270.969256 151.981395 
L 273.404165 156.293177 
L 275.839074 147.715769 
L 278.273983 158.731008 
L 280.708892 157.948557 
L 283.143801 155.212853 
L 285.57871 156.624111 
L 288.013619 151.646786 
L 290.448528 151.87183 
L 292.883438 149.607194 
L 295.318347 146.487184 
L 297.753256 140.049773 
L 300.188165 147.522088 
L 302.623074 151.441272 
L 305.057983 145.364916 
L 307.492892 148.099729 
L 309.927801 146.245267 
L 312.36271 151.06967 
L 314.797619 144.30208 
L 317.232528 146.256919 
L 319.667438 153.460971 
L 322.102347 160.791624 
L 324.537256 153.034585 
L 326.972165 165.260688 
L 329.407074 162.822345 
L 331.841983 150.682492 
L 334.276892 154.531927 
L 336.711801 152.583864 
L 339.14671 152.10498 
L 341.581619 148.787918 
L 344.016528 158.394861 
L 346.451438 154.028762 
L 348.886347 152.264151 
L 351.321256 147.759688 
L 353.756165 155.981614 
L 356.191074 161.695528 
L 358.625983 158.463617 
L 361.060892 154.159841 
L 363.495801 154.687232 
L 365.93071 159.978616 
L 368.365619 162.053145 
L 370.800528 157.838371 
L 373.235438 156.779107 
L 375.670347 154.687305 
L 378.105256 151.37733 
" clip-path="url(#p3c0c501b1d)" style="fill: none; stroke: #1f77b4; stroke-width: 1.5; stroke-linecap: square"/>
   </g>
   <g id="line2d_14">
    <path d="M 73.741619 124.866003 
L 76.176528 131.568082 
L 78.611438 127.258348 
L 81.046347 134.869171 
L 83.481256 142.71889 
L 85.916165 149.667729 
L 88.351074 157.86596 
L 90.785983 143.764295 
L 93.220892 144.742549 
L 95.655801 152.525798 
L 98.09071 123.779457 
L 100.525619 125.959948 
L 102.960528 131.968485 
L 105.395438 133.446317 
L 107.830347 143.847363 
L 110.265256 148.371195 
L 112.700165 151.908941 
L 115.135074 141.77885 
L 117.569983 133.655856 
L 120.004892 146.481557 
L 122.439801 134.598862 
L 124.87471 136.931563 
L 127.309619 150.502969 
L 129.744528 145.734523 
L 132.179438 143.280202 
L 134.614347 33.427728 
L 137.049256 139.009091 
L 139.484165 143.584332 
L 141.919074 156.379998 
L 144.353983 142.312134 
L 146.788892 147.579917 
L 149.223801 155.478736 
L 151.65871 157.321307 
L 154.093619 153.646449 
L 156.528528 149.461093 
L 158.963438 155.021828 
L 161.398347 155.124231 
L 163.833256 149.177802 
L 166.268165 153.669596 
L 168.703074 167.251642 
L 171.137983 159.364925 
L 173.572892 160.329071 
L 176.007801 158.097288 
L 178.44271 158.919089 
L 180.877619 155.34819 
L 183.312528 152.296528 
L 185.747438 147.634459 
L 188.182347 145.642238 
L 190.617256 150.238744 
L 193.052165 148.477983 
L 195.487074 152.710394 
L 197.921983 148.399807 
L 200.356892 151.782537 
L 202.791801 147.268463 
L 205.22671 150.770854 
L 207.661619 154.644348 
L 210.096528 149.50487 
L 212.531438 158.273159 
L 214.966347 149.581199 
L 217.401256 157.948951 
L 219.836165 151.399967 
L 222.271074 155.897783 
L 224.705983 148.87251 
L 227.140892 140.367928 
L 229.575801 150.722402 
L 232.01071 146.508839 
L 234.445619 149.157631 
L 236.880528 153.158649 
L 239.315438 160.118887 
L 241.750347 160.514631 
L 244.185256 155.892533 
L 246.620165 158.843083 
L 249.055074 155.646883 
L 251.489983 158.811731 
L 253.924892 154.529928 
L 256.359801 181.08 
L 258.79471 154.689391 
L 261.229619 155.294196 
L 263.664528 152.488249 
L 266.099438 152.743806 
L 268.534347 155.670143 
L 270.969256 155.59552 
L 273.404165 159.054191 
L 275.839074 153.167019 
L 278.273983 163.985098 
L 280.708892 151.778746 
L 283.143801 153.817588 
L 285.57871 154.388963 
L 288.013619 148.860657 
L 290.448528 150.585647 
L 292.883438 144.850046 
L 295.318347 150.078203 
L 297.753256 143.934149 
L 300.188165 150.652078 
L 302.623074 148.151276 
L 305.057983 149.17871 
L 307.492892 152.0642 
L 309.927801 152.884117 
L 312.36271 147.940683 
L 314.797619 142.961146 
L 317.232528 137.486637 
L 319.667438 139.304559 
L 322.102347 149.593423 
L 324.537256 151.811476 
L 326.972165 160.552035 
L 329.407074 161.748052 
L 331.841983 152.672797 
L 334.276892 168.470786 
L 336.711801 155.397935 
L 339.14671 160.839613 
L 341.581619 149.892055 
L 344.016528 150.597086 
L 346.451438 156.179036 
L 348.886347 157.06922 
L 351.321256 152.299386 
L 353.756165 158.292699 
L 356.191074 152.435556 
L 358.625983 148.708234 
L 361.060892 149.317543 
L 363.495801 144.54558 
L 365.93071 149.945503 
L 368.365619 157.903052 
L 370.800528 153.799742 
L 373.235438 152.851638 
L 375.670347 153.30815 
L 378.105256 150.115294 
" clip-path="url(#p3c0c501b1d)" style="fill: none; stroke: #ff7f0e; stroke-width: 1.5; stroke-linecap: square"/>
   </g>
   <g id="line2d_15">
    <path d="M 73.741619 147.018525 
L 76.176528 144.961151 
L 78.611438 140.348369 
L 81.046347 144.431618 
L 83.481256 149.50358 
L 85.916165 147.828482 
L 88.351074 156.493611 
L 90.785983 141.974094 
L 93.220892 140.302065 
L 95.655801 150.181438 
L 98.09071 140.372384 
L 100.525619 134.888366 
L 102.960528 141.507128 
L 105.395438 140.436537 
L 107.830347 142.070182 
L 110.265256 146.775574 
L 112.700165 145.113892 
L 115.135074 141.811529 
L 117.569983 139.376479 
L 120.004892 142.767294 
L 122.439801 143.249612 
L 124.87471 144.607791 
L 127.309619 146.864575 
L 129.744528 152.867162 
L 132.179438 162.330005 
L 134.614347 162.623044 
L 137.049256 155.750774 
L 139.484165 152.86221 
L 141.919074 156.923662 
L 144.353983 148.390705 
L 146.788892 144.323345 
L 149.223801 151.702564 
L 151.65871 149.492051 
L 154.093619 150.471525 
L 156.528528 150.067134 
L 158.963438 155.547214 
L 161.398347 157.294674 
L 163.833256 158.436177 
L 166.268165 151.904076 
L 168.703074 150.483519 
L 171.137983 161.053291 
L 173.572892 167.317349 
L 176.007801 159.11118 
L 178.44271 159.699393 
L 180.877619 149.269573 
L 183.312528 151.083907 
L 185.747438 155.279107 
L 188.182347 161.390424 
L 190.617256 145.368572 
L 193.052165 131.454259 
L 195.487074 35.173655 
L 197.921983 140.712118 
L 200.356892 147.11416 
L 202.791801 165.001213 
L 205.22671 154.15121 
L 207.661619 152.762375 
L 210.096528 146.721452 
L 212.531438 150.593585 
L 214.966347 152.408175 
L 217.401256 157.747949 
L 219.836165 148.851239 
L 222.271074 150.895633 
L 224.705983 151.966899 
L 227.140892 154.325348 
L 229.575801 162.483314 
L 232.01071 154.016883 
L 234.445619 159.21736 
L 236.880528 159.759029 
L 239.315438 157.873404 
L 241.750347 158.67507 
L 244.185256 168.393137 
L 246.620165 160.00974 
L 249.055074 156.596651 
L 251.489983 158.041649 
L 253.924892 149.742037 
L 256.359801 154.445903 
L 258.79471 160.409087 
L 261.229619 157.266699 
L 263.664528 148.856735 
L 266.099438 157.74611 
L 268.534347 159.096378 
L 270.969256 155.890429 
L 273.404165 171.305067 
L 275.839074 161.369369 
L 278.273983 162.23956 
L 280.708892 159.866225 
L 283.143801 152.705587 
L 285.57871 152.123456 
L 288.013619 152.562164 
L 290.448528 151.488768 
L 292.883438 146.518651 
L 295.318347 154.793925 
L 297.753256 147.546412 
L 300.188165 150.817272 
L 302.623074 148.905761 
L 305.057983 148.339739 
L 307.492892 148.395646 
L 309.927801 145.395885 
L 312.36271 151.704852 
L 314.797619 149.180578 
L 317.232528 142.080371 
L 319.667438 142.794576 
L 322.102347 154.153848 
L 324.537256 155.207368 
L 326.972165 161.746438 
L 329.407074 161.831425 
L 331.841983 157.309431 
L 334.276892 160.152108 
L 336.711801 163.074433 
L 339.14671 157.059866 
L 341.581619 153.428304 
L 344.016528 160.075928 
L 346.451438 154.13471 
L 348.886347 151.821059 
L 351.321256 143.873826 
L 353.756165 154.377639 
L 356.191074 159.540579 
L 358.625983 151.88387 
L 361.060892 157.230508 
L 363.495801 156.633205 
L 365.93071 160.264076 
L 368.365619 155.288756 
L 370.800528 152.189018 
L 373.235438 158.887337 
L 375.670347 154.671854 
L 378.105256 171.863775 
" clip-path="url(#p3c0c501b1d)" style="fill: none; stroke: #2ca02c; stroke-width: 1.5; stroke-linecap: square"/>
   </g>
   <g id="line2d_16">
    <path d="M 73.741619 140.019219 
L 76.176528 136.302872 
L 78.611438 124.197905 
L 81.046347 134.529606 
L 83.481256 141.32706 
L 85.916165 147.042761 
L 88.351074 159.445161 
L 90.785983 160.601328 
L 93.220892 147.198435 
L 95.655801 149.327428 
L 98.09071 126.1647 
L 100.525619 121.547518 
L 102.960528 125.754075 
L 105.395438 133.199094 
L 107.830347 145.519914 
L 110.265256 138.60686 
L 112.700165 142.598987 
L 115.135074 141.353904 
L 117.569983 132.329933 
L 120.004892 142.599862 
L 122.439801 138.489556 
L 124.87471 148.161153 
L 127.309619 155.797614 
L 129.744528 158.340192 
L 132.179438 156.140445 
L 134.614347 155.078949 
L 137.049256 158.366592 
L 139.484165 153.695884 
L 141.919074 149.026525 
L 144.353983 138.259068 
L 146.788892 146.990625 
L 149.223801 156.636048 
L 151.65871 157.841822 
L 154.093619 159.753549 
L 156.528528 163.591905 
L 158.963438 154.074756 
L 161.398347 161.164891 
L 163.833256 161.691659 
L 166.268165 151.544582 
L 168.703074 167.738296 
L 171.137983 158.070407 
L 173.572892 165.687637 
L 176.007801 159.134689 
L 178.44271 163.132178 
L 180.877619 158.857956 
L 183.312528 144.713043 
L 185.747438 140.443832 
L 188.182347 141.981073 
L 190.617256 147.129054 
L 193.052165 149.077555 
L 195.487074 155.796842 
L 197.921983 154.293699 
L 200.356892 162.227881 
L 202.791801 161.227711 
L 205.22671 151.277025 
L 207.661619 150.779745 
L 210.096528 144.741425 
L 212.531438 148.963885 
L 214.966347 155.955425 
L 217.401256 151.720362 
L 219.836165 156.652693 
L 222.271074 155.607612 
L 224.705983 152.848228 
L 227.140892 149.09989 
L 229.575801 148.905942 
L 232.01071 149.613473 
L 234.445619 153.981325 
L 236.880528 158.466046 
L 239.315438 166.219614 
L 241.750347 156.501966 
L 244.185256 161.568384 
L 246.620165 161.406384 
L 249.055074 155.820118 
L 251.489983 153.779775 
L 253.924892 131.626602 
L 256.359801 29.88 
L 258.79471 133.448802 
L 261.229619 161.49755 
L 263.664528 164.09826 
L 266.099438 154.626501 
L 268.534347 161.607108 
L 270.969256 151.800876 
L 273.404165 165.210945 
L 275.839074 151.091269 
L 278.273983 154.181983 
L 280.708892 160.164647 
L 283.143801 157.19938 
L 285.57871 150.093367 
L 288.013619 151.295161 
L 290.448528 145.511611 
L 292.883438 146.629578 
L 295.318347 149.867687 
L 297.753256 149.959432 
L 300.188165 148.589921 
L 302.623074 157.33274 
L 305.057983 153.372619 
L 307.492892 153.050224 
L 309.927801 147.057573 
L 312.36271 141.779128 
L 314.797619 140.347314 
L 317.232528 140.208691 
L 319.667438 144.13976 
L 322.102347 156.069648 
L 324.537256 142.042525 
L 326.972165 166.32903 
L 329.407074 168.051014 
L 331.841983 164.120635 
L 334.276892 169.041125 
L 336.711801 161.317454 
L 339.14671 154.188073 
L 341.581619 149.708289 
L 344.016528 157.073077 
L 346.451438 156.368998 
L 348.886347 154.77191 
L 351.321256 155.254705 
L 353.756165 154.47697 
L 356.191074 151.676553 
L 358.625983 146.726435 
L 361.060892 151.911223 
L 363.495801 148.657328 
L 365.93071 155.402944 
L 368.365619 154.574352 
L 370.800528 155.917266 
L 373.235438 148.143076 
L 375.670347 156.803131 
L 378.105256 150.619865 
" clip-path="url(#p3c0c501b1d)" style="fill: none; stroke: #d62728; stroke-width: 1.5; stroke-linecap: square"/>
   </g>
   <g id="patch_3">
    <path d="M 58.523438 188.64 
L 58.523438 22.32 
" style="fill: none; stroke: #000000; stroke-width: 0.8; stroke-linejoin: miter; stroke-linecap: square"/>
   </g>
   <g id="patch_4">
    <path d="M 393.323438 188.64 
L 393.323438 22.32 
" style="fill: none; stroke: #000000; stroke-width: 0.8; stroke-linejoin: miter; stroke-linecap: square"/>
   </g>
   <g id="patch_5">
    <path d="M 58.523438 188.64 
L 393.323438 188.64 
" style="fill: none; stroke: #000000; stroke-width: 0.8; stroke-linejoin: miter; stroke-linecap: square"/>
   </g>
   <g id="patch_6">
    <path d="M 58.523438 22.32 
L 393.323438 22.32 
" style="fill: none; stroke: #000000; stroke-width: 0.8; stroke-linejoin: miter; stroke-linecap: square"/>
   </g>
   <g id="text_15">
    <!-- Prince Jazz Cepstra $c$ for Guitar Rave Models -->
    <g transform="translate(92.543438 16.32) scale(0.12 -0.12)">
     <defs>
      <path id="DejaVuSans-50" d="M 1259 4147 
L 1259 2394 
L 2053 2394 
Q 2494 2394 2734 2622 
Q 2975 2850 2975 3272 
Q 2975 3691 2734 3919 
Q 2494 4147 2053 4147 
L 1259 4147 
z
M 628 4666 
L 2053 4666 
Q 2838 4666 3239 4311 
Q 3641 3956 3641 3272 
Q 3641 2581 3239 2228 
Q 2838 1875 2053 1875 
L 1259 1875 
L 1259 0 
L 628 0 
L 628 4666 
z
" transform="scale(0.015625)"/>
      <path id="DejaVuSans-69" d="M 603 3500 
L 1178 3500 
L 1178 0 
L 603 0 
L 603 3500 
z
M 603 4863 
L 1178 4863 
L 1178 4134 
L 603 4134 
L 603 4863 
z
" transform="scale(0.015625)"/>
      <path id="DejaVuSans-6e" d="M 3513 2113 
L 3513 0 
L 2938 0 
L 2938 2094 
Q 2938 2591 2744 2837 
Q 2550 3084 2163 3084 
Q 1697 3084 1428 2787 
Q 1159 2491 1159 1978 
L 1159 0 
L 581 0 
L 581 3500 
L 1159 3500 
L 1159 2956 
Q 1366 3272 1645 3428 
Q 1925 3584 2291 3584 
Q 2894 3584 3203 3211 
Q 3513 2838 3513 2113 
z
" transform="scale(0.015625)"/>
      <path id="DejaVuSans-4a" d="M 628 4666 
L 1259 4666 
L 1259 325 
Q 1259 -519 939 -900 
Q 619 -1281 -91 -1281 
L -331 -1281 
L -331 -750 
L -134 -750 
Q 284 -750 456 -515 
Q 628 -281 628 325 
L 628 4666 
z
" transform="scale(0.015625)"/>
      <path id="DejaVuSans-7a" d="M 353 3500 
L 3084 3500 
L 3084 2975 
L 922 459 
L 3084 459 
L 3084 0 
L 275 0 
L 275 525 
L 2438 3041 
L 353 3041 
L 353 3500 
z
" transform="scale(0.015625)"/>
      <path id="DejaVuSans-Oblique-63" d="M 3431 3366 
L 3316 2797 
Q 3109 2947 2876 3022 
Q 2644 3097 2394 3097 
Q 2119 3097 1870 3000 
Q 1622 2903 1453 2725 
Q 1184 2453 1037 2087 
Q 891 1722 891 1331 
Q 891 859 1127 628 
Q 1363 397 1844 397 
Q 2081 397 2348 469 
Q 2616 541 2906 684 
L 2797 116 
Q 2547 13 2283 -39 
Q 2019 -91 1741 -91 
Q 1044 -91 669 257 
Q 294 606 294 1253 
Q 294 1797 489 2255 
Q 684 2713 1069 3078 
Q 1331 3328 1684 3456 
Q 2038 3584 2456 3584 
Q 2700 3584 2940 3529 
Q 3181 3475 3431 3366 
z
" transform="scale(0.015625)"/>
      <path id="DejaVuSans-66" d="M 2375 4863 
L 2375 4384 
L 1825 4384 
Q 1516 4384 1395 4259 
Q 1275 4134 1275 3809 
L 1275 3500 
L 2222 3500 
L 2222 3053 
L 1275 3053 
L 1275 0 
L 697 0 
L 697 3053 
L 147 3053 
L 147 3500 
L 697 3500 
L 697 3744 
Q 697 4328 969 4595 
Q 1241 4863 1831 4863 
L 2375 4863 
z
" transform="scale(0.015625)"/>
      <path id="DejaVuSans-47" d="M 3809 666 
L 3809 1919 
L 2778 1919 
L 2778 2438 
L 4434 2438 
L 4434 434 
Q 4069 175 3628 42 
Q 3188 -91 2688 -91 
Q 1594 -91 976 548 
Q 359 1188 359 2328 
Q 359 3472 976 4111 
Q 1594 4750 2688 4750 
Q 3144 4750 3555 4637 
Q 3966 4525 4313 4306 
L 4313 3634 
Q 3963 3931 3569 4081 
Q 3175 4231 2741 4231 
Q 1884 4231 1454 3753 
Q 1025 3275 1025 2328 
Q 1025 1384 1454 906 
Q 1884 428 2741 428 
Q 3075 428 3337 486 
Q 3600 544 3809 666 
z
" transform="scale(0.015625)"/>
      <path id="DejaVuSans-52" d="M 2841 2188 
Q 3044 2119 3236 1894 
Q 3428 1669 3622 1275 
L 4263 0 
L 3584 0 
L 2988 1197 
Q 2756 1666 2539 1819 
Q 2322 1972 1947 1972 
L 1259 1972 
L 1259 0 
L 628 0 
L 628 4666 
L 2053 4666 
Q 2853 4666 3247 4331 
Q 3641 3997 3641 3322 
Q 3641 2881 3436 2590 
Q 3231 2300 2841 2188 
z
M 1259 4147 
L 1259 2491 
L 2053 2491 
Q 2509 2491 2742 2702 
Q 2975 2913 2975 3322 
Q 2975 3731 2742 3939 
Q 2509 4147 2053 4147 
L 1259 4147 
z
" transform="scale(0.015625)"/>
      <path id="DejaVuSans-76" d="M 191 3500 
L 800 3500 
L 1894 563 
L 2988 3500 
L 3597 3500 
L 2284 0 
L 1503 0 
L 191 3500 
z
" transform="scale(0.015625)"/>
      <path id="DejaVuSans-4d" d="M 628 4666 
L 1569 4666 
L 2759 1491 
L 3956 4666 
L 4897 4666 
L 4897 0 
L 4281 0 
L 4281 4097 
L 3078 897 
L 2444 897 
L 1241 4097 
L 1241 0 
L 628 0 
L 628 4666 
z
" transform="scale(0.015625)"/>
      <path id="DejaVuSans-64" d="M 2906 2969 
L 2906 4863 
L 3481 4863 
L 3481 0 
L 2906 0 
L 2906 525 
Q 2725 213 2448 61 
Q 2172 -91 1784 -91 
Q 1150 -91 751 415 
Q 353 922 353 1747 
Q 353 2572 751 3078 
Q 1150 3584 1784 3584 
Q 2172 3584 2448 3432 
Q 2725 3281 2906 2969 
z
M 947 1747 
Q 947 1113 1208 752 
Q 1469 391 1925 391 
Q 2381 391 2643 752 
Q 2906 1113 2906 1747 
Q 2906 2381 2643 2742 
Q 2381 3103 1925 3103 
Q 1469 3103 1208 2742 
Q 947 2381 947 1747 
z
" transform="scale(0.015625)"/>
     </defs>
     <use xlink:href="#DejaVuSans-50" transform="translate(0 0.015625)"/>
     <use xlink:href="#DejaVuSans-72" transform="translate(60.302734 0.015625)"/>
     <use xlink:href="#DejaVuSans-69" transform="translate(101.416016 0.015625)"/>
     <use xlink:href="#DejaVuSans-6e" transform="translate(129.199219 0.015625)"/>
     <use xlink:href="#DejaVuSans-63" transform="translate(192.578125 0.015625)"/>
     <use xlink:href="#DejaVuSans-65" transform="translate(247.558594 0.015625)"/>
     <use xlink:href="#DejaVuSans-20" transform="translate(309.082031 0.015625)"/>
     <use xlink:href="#DejaVuSans-4a" transform="translate(340.869141 0.015625)"/>
     <use xlink:href="#DejaVuSans-61" transform="translate(370.361328 0.015625)"/>
     <use xlink:href="#DejaVuSans-7a" transform="translate(431.640625 0.015625)"/>
     <use xlink:href="#DejaVuSans-7a" transform="translate(484.130859 0.015625)"/>
     <use xlink:href="#DejaVuSans-20" transform="translate(536.621094 0.015625)"/>
     <use xlink:href="#DejaVuSans-43" transform="translate(568.408203 0.015625)"/>
     <use xlink:href="#DejaVuSans-65" transform="translate(638.232422 0.015625)"/>
     <use xlink:href="#DejaVuSans-70" transform="translate(699.755859 0.015625)"/>
     <use xlink:href="#DejaVuSans-73" transform="translate(763.232422 0.015625)"/>
     <use xlink:href="#DejaVuSans-74" transform="translate(815.332031 0.015625)"/>
     <use xlink:href="#DejaVuSans-72" transform="translate(854.541016 0.015625)"/>
     <use xlink:href="#DejaVuSans-61" transform="translate(895.654297 0.015625)"/>
     <use xlink:href="#DejaVuSans-20" transform="translate(956.933594 0.015625)"/>
     <use xlink:href="#DejaVuSans-Oblique-63" transform="translate(988.720703 0.015625)"/>
     <use xlink:href="#DejaVuSans-20" transform="translate(1043.701172 0.015625)"/>
     <use xlink:href="#DejaVuSans-66" transform="translate(1075.488281 0.015625)"/>
     <use xlink:href="#DejaVuSans-6f" transform="translate(1110.693359 0.015625)"/>
     <use xlink:href="#DejaVuSans-72" transform="translate(1171.875 0.015625)"/>
     <use xlink:href="#DejaVuSans-20" transform="translate(1212.988281 0.015625)"/>
     <use xlink:href="#DejaVuSans-47" transform="translate(1244.775391 0.015625)"/>
     <use xlink:href="#DejaVuSans-75" transform="translate(1322.265625 0.015625)"/>
     <use xlink:href="#DejaVuSans-69" transform="translate(1385.644531 0.015625)"/>
     <use xlink:href="#DejaVuSans-74" transform="translate(1413.427734 0.015625)"/>
     <use xlink:href="#DejaVuSans-61" transform="translate(1452.636719 0.015625)"/>
     <use xlink:href="#DejaVuSans-72" transform="translate(1513.916016 0.015625)"/>
     <use xlink:href="#DejaVuSans-20" transform="translate(1555.029297 0.015625)"/>
     <use xlink:href="#DejaVuSans-52" transform="translate(1586.816406 0.015625)"/>
     <use xlink:href="#DejaVuSans-61" transform="translate(1656.298828 0.015625)"/>
     <use xlink:href="#DejaVuSans-76" transform="translate(1717.578125 0.015625)"/>
     <use xlink:href="#DejaVuSans-65" transform="translate(1776.757812 0.015625)"/>
     <use xlink:href="#DejaVuSans-20" transform="translate(1838.28125 0.015625)"/>
     <use xlink:href="#DejaVuSans-4d" transform="translate(1870.068359 0.015625)"/>
     <use xlink:href="#DejaVuSans-6f" transform="translate(1956.347656 0.015625)"/>
     <use xlink:href="#DejaVuSans-64" transform="translate(2017.529297 0.015625)"/>
     <use xlink:href="#DejaVuSans-65" transform="translate(2081.005859 0.015625)"/>
     <use xlink:href="#DejaVuSans-6c" transform="translate(2142.529297 0.015625)"/>
     <use xlink:href="#DejaVuSans-73" transform="translate(2170.3125 0.015625)"/>
    </g>
   </g>
   <g id="legend_1">
    <g id="patch_7">
     <path d="M 261.470313 89.0325 
L 386.323438 89.0325 
Q 388.323438 89.0325 388.323438 87.0325 
L 388.323438 29.32 
Q 388.323438 27.32 386.323438 27.32 
L 261.470313 27.32 
Q 259.470313 27.32 259.470313 29.32 
L 259.470313 87.0325 
Q 259.470313 89.0325 261.470313 89.0325 
z
" style="fill: #ffffff; opacity: 0.8; stroke: #cccccc; stroke-linejoin: miter"/>
    </g>
    <g id="line2d_17">
     <path d="M 263.470313 35.418437 
L 273.470313 35.418437 
L 283.470313 35.418437 
" style="fill: none; stroke: #1f77b4; stroke-width: 1.5; stroke-linecap: square"/>
    </g>
    <g id="text_16">
     <!-- Clean -->
     <g transform="translate(291.470313 38.918437) scale(0.1 -0.1)">
      <use xlink:href="#DejaVuSans-43"/>
      <use xlink:href="#DejaVuSans-6c" x="69.824219"/>
      <use xlink:href="#DejaVuSans-65" x="97.607422"/>
      <use xlink:href="#DejaVuSans-61" x="159.130859"/>
      <use xlink:href="#DejaVuSans-6e" x="220.410156"/>
     </g>
    </g>
    <g id="line2d_18">
     <path d="M 263.470313 50.096562 
L 273.470313 50.096562 
L 283.470313 50.096562 
" style="fill: none; stroke: #ff7f0e; stroke-width: 1.5; stroke-linecap: square"/>
    </g>
    <g id="text_17">
     <!-- 50   (z[50] = 13.5) -->
     <g transform="translate(291.470313 53.596562) scale(0.1 -0.1)">
      <defs>
       <path id="DejaVuSans-5b" d="M 550 4863 
L 1875 4863 
L 1875 4416 
L 1125 4416 
L 1125 -397 
L 1875 -397 
L 1875 -844 
L 550 -844 
L 550 4863 
z
" transform="scale(0.015625)"/>
       <path id="DejaVuSans-5d" d="M 1947 4863 
L 1947 -844 
L 622 -844 
L 622 -397 
L 1369 -397 
L 1369 4416 
L 622 4416 
L 622 4863 
L 1947 4863 
z
" transform="scale(0.015625)"/>
       <path id="DejaVuSans-3d" d="M 678 2906 
L 4684 2906 
L 4684 2381 
L 678 2381 
L 678 2906 
z
M 678 1631 
L 4684 1631 
L 4684 1100 
L 678 1100 
L 678 1631 
z
" transform="scale(0.015625)"/>
       <path id="DejaVuSans-33" d="M 2597 2516 
Q 3050 2419 3304 2112 
Q 3559 1806 3559 1356 
Q 3559 666 3084 287 
Q 2609 -91 1734 -91 
Q 1441 -91 1130 -33 
Q 819 25 488 141 
L 488 750 
Q 750 597 1062 519 
Q 1375 441 1716 441 
Q 2309 441 2620 675 
Q 2931 909 2931 1356 
Q 2931 1769 2642 2001 
Q 2353 2234 1838 2234 
L 1294 2234 
L 1294 2753 
L 1863 2753 
Q 2328 2753 2575 2939 
Q 2822 3125 2822 3475 
Q 2822 3834 2567 4026 
Q 2313 4219 1838 4219 
Q 1578 4219 1281 4162 
Q 984 4106 628 3988 
L 628 4550 
Q 988 4650 1302 4700 
Q 1616 4750 1894 4750 
Q 2613 4750 3031 4423 
Q 3450 4097 3450 3541 
Q 3450 3153 3228 2886 
Q 3006 2619 2597 2516 
z
" transform="scale(0.015625)"/>
      </defs>
      <use xlink:href="#DejaVuSans-35"/>
      <use xlink:href="#DejaVuSans-30" x="63.623047"/>
      <use xlink:href="#DejaVuSans-20" x="127.246094"/>
      <use xlink:href="#DejaVuSans-20" x="159.033203"/>
      <use xlink:href="#DejaVuSans-20" x="190.820312"/>
      <use xlink:href="#DejaVuSans-28" x="222.607422"/>
      <use xlink:href="#DejaVuSans-7a" x="261.621094"/>
      <use xlink:href="#DejaVuSans-5b" x="314.111328"/>
      <use xlink:href="#DejaVuSans-35" x="353.125"/>
      <use xlink:href="#DejaVuSans-30" x="416.748047"/>
      <use xlink:href="#DejaVuSans-5d" x="480.371094"/>
      <use xlink:href="#DejaVuSans-20" x="519.384766"/>
      <use xlink:href="#DejaVuSans-3d" x="551.171875"/>
      <use xlink:href="#DejaVuSans-20" x="634.960938"/>
      <use xlink:href="#DejaVuSans-31" x="666.748047"/>
      <use xlink:href="#DejaVuSans-33" x="730.371094"/>
      <use xlink:href="#DejaVuSans-2e" x="793.994141"/>
      <use xlink:href="#DejaVuSans-35" x="825.78125"/>
      <use xlink:href="#DejaVuSans-29" x="889.404297"/>
     </g>
    </g>
    <g id="line2d_19">
     <path d="M 263.470313 64.774687 
L 273.470313 64.774687 
L 283.470313 64.774687 
" style="fill: none; stroke: #2ca02c; stroke-width: 1.5; stroke-linecap: square"/>
    </g>
    <g id="text_18">
     <!-- 75   (z[75] = 16.0) -->
     <g transform="translate(291.470313 68.274687) scale(0.1 -0.1)">
      <defs>
       <path id="DejaVuSans-37" d="M 525 4666 
L 3525 4666 
L 3525 4397 
L 1831 0 
L 1172 0 
L 2766 4134 
L 525 4134 
L 525 4666 
z
" transform="scale(0.015625)"/>
      </defs>
      <use xlink:href="#DejaVuSans-37"/>
      <use xlink:href="#DejaVuSans-35" x="63.623047"/>
      <use xlink:href="#DejaVuSans-20" x="127.246094"/>
      <use xlink:href="#DejaVuSans-20" x="159.033203"/>
      <use xlink:href="#DejaVuSans-20" x="190.820312"/>
      <use xlink:href="#DejaVuSans-28" x="222.607422"/>
      <use xlink:href="#DejaVuSans-7a" x="261.621094"/>
      <use xlink:href="#DejaVuSans-5b" x="314.111328"/>
      <use xlink:href="#DejaVuSans-37" x="353.125"/>
      <use xlink:href="#DejaVuSans-35" x="416.748047"/>
      <use xlink:href="#DejaVuSans-5d" x="480.371094"/>
      <use xlink:href="#DejaVuSans-20" x="519.384766"/>
      <use xlink:href="#DejaVuSans-3d" x="551.171875"/>
      <use xlink:href="#DejaVuSans-20" x="634.960938"/>
      <use xlink:href="#DejaVuSans-31" x="666.748047"/>
      <use xlink:href="#DejaVuSans-36" x="730.371094"/>
      <use xlink:href="#DejaVuSans-2e" x="793.994141"/>
      <use xlink:href="#DejaVuSans-30" x="825.78125"/>
      <use xlink:href="#DejaVuSans-29" x="889.404297"/>
     </g>
    </g>
    <g id="line2d_20">
     <path d="M 263.470313 79.452812 
L 273.470313 79.452812 
L 283.470313 79.452812 
" style="fill: none; stroke: #d62728; stroke-width: 1.5; stroke-linecap: square"/>
    </g>
    <g id="text_19">
     <!-- 100 (z[100]=12.8) -->
     <g transform="translate(291.470313 82.952812) scale(0.1 -0.1)">
      <use xlink:href="#DejaVuSans-31"/>
      <use xlink:href="#DejaVuSans-30" x="63.623047"/>
      <use xlink:href="#DejaVuSans-30" x="127.246094"/>
      <use xlink:href="#DejaVuSans-20" x="190.869141"/>
      <use xlink:href="#DejaVuSans-28" x="222.65625"/>
      <use xlink:href="#DejaVuSans-7a" x="261.669922"/>
      <use xlink:href="#DejaVuSans-5b" x="314.160156"/>
      <use xlink:href="#DejaVuSans-31" x="353.173828"/>
      <use xlink:href="#DejaVuSans-30" x="416.796875"/>
      <use xlink:href="#DejaVuSans-30" x="480.419922"/>
      <use xlink:href="#DejaVuSans-5d" x="544.042969"/>
      <use xlink:href="#DejaVuSans-3d" x="583.056641"/>
      <use xlink:href="#DejaVuSans-31" x="666.845703"/>
      <use xlink:href="#DejaVuSans-32" x="730.46875"/>
      <use xlink:href="#DejaVuSans-2e" x="794.091797"/>
      <use xlink:href="#DejaVuSans-38" x="825.878906"/>
      <use xlink:href="#DejaVuSans-29" x="889.501953"/>
     </g>
    </g>
   </g>
  </g>
 </g>
 <defs>
  <clipPath id="p3c0c501b1d">
   <rect x="58.523438" y="22.32" width="334.8" height="166.32"/>
  </clipPath>
 </defs>
</svg>
