<?xml version="1.0" encoding="utf-8" standalone="no"?>
<!DOCTYPE svg PUBLIC "-//W3C//DTD SVG 1.1//EN"
  "http://www.w3.org/Graphics/SVG/1.1/DTD/svg11.dtd">
<svg xmlns:xlink="http://www.w3.org/1999/xlink" width="403.371562pt" height="211.074375pt" viewBox="0 0 403.371562 211.074375" xmlns="http://www.w3.org/2000/svg" version="1.1">
 <metadata>
  <rdf:RDF xmlns:dc="http://purl.org/dc/elements/1.1/" xmlns:cc="http://creativecommons.org/ns#" xmlns:rdf="http://www.w3.org/1999/02/22-rdf-syntax-ns#">
   <cc:Work>
    <dc:type rdf:resource="http://purl.org/dc/dcmitype/StillImage"/>
    <dc:date>2024-11-19T18:22:29.616873</dc:date>
    <dc:format>image/svg+xml</dc:format>
    <dc:creator>
     <cc:Agent>
      <dc:title>Matplotlib v3.9.2, https://matplotlib.org/</dc:title>
     </cc:Agent>
    </dc:creator>
   </cc:Work>
  </rdf:RDF>
 </metadata>
 <defs>
  <style type="text/css">*{stroke-linejoin: round; stroke-linecap: butt}</style>
 </defs>
 <g id="figure_1">
  <g id="patch_1">
   <path d="M 0 211.074375 
L 403.371562 211.074375 
L 403.371562 0 
L 0 0 
z
" style="fill: #ffffff"/>
  </g>
  <g id="axes_1">
   <g id="patch_2">
    <path d="M 58.523438 173.518125 
L 393.323438 173.518125 
L 393.323438 22.318125 
L 58.523438 22.318125 
z
" style="fill: #ffffff"/>
   </g>
   <g id="matplotlib.axis_1">
    <g id="xtick_1">
     <g id="line2d_1">
      <defs>
       <path id="m4bff0814d3" d="M 0 0 
L 0 3.5 
" style="stroke: #000000; stroke-width: 0.8"/>
      </defs>
      <g>
       <use xlink:href="#m4bff0814d3" x="61.567074" y="173.518125" style="stroke: #000000; stroke-width: 0.8"/>
      </g>
     </g>
     <g id="text_1">
      <!-- 20 -->
      <g transform="translate(55.204574 188.116562) scale(0.1 -0.1)">
       <defs>
        <path id="DejaVuSans-32" d="M 1228 531 
L 3431 531 
L 3431 0 
L 469 0 
L 469 531 
Q 828 903 1448 1529 
Q 2069 2156 2228 2338 
Q 2531 2678 2651 2914 
Q 2772 3150 2772 3378 
Q 2772 3750 2511 3984 
Q 2250 4219 1831 4219 
Q 1534 4219 1204 4116 
Q 875 4013 500 3803 
L 500 4441 
Q 881 4594 1212 4672 
Q 1544 4750 1819 4750 
Q 2544 4750 2975 4387 
Q 3406 4025 3406 3419 
Q 3406 3131 3298 2873 
Q 3191 2616 2906 2266 
Q 2828 2175 2409 1742 
Q 1991 1309 1228 531 
z
" transform="scale(0.015625)"/>
        <path id="DejaVuSans-30" d="M 2034 4250 
Q 1547 4250 1301 3770 
Q 1056 3291 1056 2328 
Q 1056 1369 1301 889 
Q 1547 409 2034 409 
Q 2525 409 2770 889 
Q 3016 1369 3016 2328 
Q 3016 3291 2770 3770 
Q 2525 4250 2034 4250 
z
M 2034 4750 
Q 2819 4750 3233 4129 
Q 3647 3509 3647 2328 
Q 3647 1150 3233 529 
Q 2819 -91 2034 -91 
Q 1250 -91 836 529 
Q 422 1150 422 2328 
Q 422 3509 836 4129 
Q 1250 4750 2034 4750 
z
" transform="scale(0.015625)"/>
       </defs>
       <use xlink:href="#DejaVuSans-32"/>
       <use xlink:href="#DejaVuSans-30" x="63.623047"/>
      </g>
     </g>
    </g>
    <g id="xtick_2">
     <g id="line2d_2">
      <g>
       <use xlink:href="#m4bff0814d3" x="110.265256" y="173.518125" style="stroke: #000000; stroke-width: 0.8"/>
      </g>
     </g>
     <g id="text_2">
      <!-- 40 -->
      <g transform="translate(103.902756 188.116562) scale(0.1 -0.1)">
       <defs>
        <path id="DejaVuSans-34" d="M 2419 4116 
L 825 1625 
L 2419 1625 
L 2419 4116 
z
M 2253 4666 
L 3047 4666 
L 3047 1625 
L 3713 1625 
L 3713 1100 
L 3047 1100 
L 3047 0 
L 2419 0 
L 2419 1100 
L 313 1100 
L 313 1709 
L 2253 4666 
z
" transform="scale(0.015625)"/>
       </defs>
       <use xlink:href="#DejaVuSans-34"/>
       <use xlink:href="#DejaVuSans-30" x="63.623047"/>
      </g>
     </g>
    </g>
    <g id="xtick_3">
     <g id="line2d_3">
      <g>
       <use xlink:href="#m4bff0814d3" x="158.963438" y="173.518125" style="stroke: #000000; stroke-width: 0.8"/>
      </g>
     </g>
     <g id="text_3">
      <!-- 60 -->
      <g transform="translate(152.600938 188.116562) scale(0.1 -0.1)">
       <defs>
        <path id="DejaVuSans-36" d="M 2113 2584 
Q 1688 2584 1439 2293 
Q 1191 2003 1191 1497 
Q 1191 994 1439 701 
Q 1688 409 2113 409 
Q 2538 409 2786 701 
Q 3034 994 3034 1497 
Q 3034 2003 2786 2293 
Q 2538 2584 2113 2584 
z
M 3366 4563 
L 3366 3988 
Q 3128 4100 2886 4159 
Q 2644 4219 2406 4219 
Q 1781 4219 1451 3797 
Q 1122 3375 1075 2522 
Q 1259 2794 1537 2939 
Q 1816 3084 2150 3084 
Q 2853 3084 3261 2657 
Q 3669 2231 3669 1497 
Q 3669 778 3244 343 
Q 2819 -91 2113 -91 
Q 1303 -91 875 529 
Q 447 1150 447 2328 
Q 447 3434 972 4092 
Q 1497 4750 2381 4750 
Q 2619 4750 2861 4703 
Q 3103 4656 3366 4563 
z
" transform="scale(0.015625)"/>
       </defs>
       <use xlink:href="#DejaVuSans-36"/>
       <use xlink:href="#DejaVuSans-30" x="63.623047"/>
      </g>
     </g>
    </g>
    <g id="xtick_4">
     <g id="line2d_4">
      <g>
       <use xlink:href="#m4bff0814d3" x="207.661619" y="173.518125" style="stroke: #000000; stroke-width: 0.8"/>
      </g>
     </g>
     <g id="text_4">
      <!-- 80 -->
      <g transform="translate(201.299119 188.116562) scale(0.1 -0.1)">
       <defs>
        <path id="DejaVuSans-38" d="M 2034 2216 
Q 1584 2216 1326 1975 
Q 1069 1734 1069 1313 
Q 1069 891 1326 650 
Q 1584 409 2034 409 
Q 2484 409 2743 651 
Q 3003 894 3003 1313 
Q 3003 1734 2745 1975 
Q 2488 2216 2034 2216 
z
M 1403 2484 
Q 997 2584 770 2862 
Q 544 3141 544 3541 
Q 544 4100 942 4425 
Q 1341 4750 2034 4750 
Q 2731 4750 3128 4425 
Q 3525 4100 3525 3541 
Q 3525 3141 3298 2862 
Q 3072 2584 2669 2484 
Q 3125 2378 3379 2068 
Q 3634 1759 3634 1313 
Q 3634 634 3220 271 
Q 2806 -91 2034 -91 
Q 1263 -91 848 271 
Q 434 634 434 1313 
Q 434 1759 690 2068 
Q 947 2378 1403 2484 
z
M 1172 3481 
Q 1172 3119 1398 2916 
Q 1625 2713 2034 2713 
Q 2441 2713 2670 2916 
Q 2900 3119 2900 3481 
Q 2900 3844 2670 4047 
Q 2441 4250 2034 4250 
Q 1625 4250 1398 4047 
Q 1172 3844 1172 3481 
z
" transform="scale(0.015625)"/>
       </defs>
       <use xlink:href="#DejaVuSans-38"/>
       <use xlink:href="#DejaVuSans-30" x="63.623047"/>
      </g>
     </g>
    </g>
    <g id="xtick_5">
     <g id="line2d_5">
      <g>
       <use xlink:href="#m4bff0814d3" x="256.359801" y="173.518125" style="stroke: #000000; stroke-width: 0.8"/>
      </g>
     </g>
     <g id="text_5">
      <!-- 100 -->
      <g transform="translate(246.816051 188.116562) scale(0.1 -0.1)">
       <defs>
        <path id="DejaVuSans-31" d="M 794 531 
L 1825 531 
L 1825 4091 
L 703 3866 
L 703 4441 
L 1819 4666 
L 2450 4666 
L 2450 531 
L 3481 531 
L 3481 0 
L 794 0 
L 794 531 
z
" transform="scale(0.015625)"/>
       </defs>
       <use xlink:href="#DejaVuSans-31"/>
       <use xlink:href="#DejaVuSans-30" x="63.623047"/>
       <use xlink:href="#DejaVuSans-30" x="127.246094"/>
      </g>
     </g>
    </g>
    <g id="xtick_6">
     <g id="line2d_6">
      <g>
       <use xlink:href="#m4bff0814d3" x="305.057983" y="173.518125" style="stroke: #000000; stroke-width: 0.8"/>
      </g>
     </g>
     <g id="text_6">
      <!-- 120 -->
      <g transform="translate(295.514233 188.116562) scale(0.1 -0.1)">
       <use xlink:href="#DejaVuSans-31"/>
       <use xlink:href="#DejaVuSans-32" x="63.623047"/>
       <use xlink:href="#DejaVuSans-30" x="127.246094"/>
      </g>
     </g>
    </g>
    <g id="xtick_7">
     <g id="line2d_7">
      <g>
       <use xlink:href="#m4bff0814d3" x="353.756165" y="173.518125" style="stroke: #000000; stroke-width: 0.8"/>
      </g>
     </g>
     <g id="text_7">
      <!-- 140 -->
      <g transform="translate(344.212415 188.116562) scale(0.1 -0.1)">
       <use xlink:href="#DejaVuSans-31"/>
       <use xlink:href="#DejaVuSans-34" x="63.623047"/>
       <use xlink:href="#DejaVuSans-30" x="127.246094"/>
      </g>
     </g>
    </g>
    <g id="text_8">
     <!-- Echo (Samples) -->
     <g transform="translate(186.942969 201.794688) scale(0.1 -0.1)">
      <defs>
       <path id="DejaVuSans-45" d="M 628 4666 
L 3578 4666 
L 3578 4134 
L 1259 4134 
L 1259 2753 
L 3481 2753 
L 3481 2222 
L 1259 2222 
L 1259 531 
L 3634 531 
L 3634 0 
L 628 0 
L 628 4666 
z
" transform="scale(0.015625)"/>
       <path id="DejaVuSans-63" d="M 3122 3366 
L 3122 2828 
Q 2878 2963 2633 3030 
Q 2388 3097 2138 3097 
Q 1578 3097 1268 2742 
Q 959 2388 959 1747 
Q 959 1106 1268 751 
Q 1578 397 2138 397 
Q 2388 397 2633 464 
Q 2878 531 3122 666 
L 3122 134 
Q 2881 22 2623 -34 
Q 2366 -91 2075 -91 
Q 1284 -91 818 406 
Q 353 903 353 1747 
Q 353 2603 823 3093 
Q 1294 3584 2113 3584 
Q 2378 3584 2631 3529 
Q 2884 3475 3122 3366 
z
" transform="scale(0.015625)"/>
       <path id="DejaVuSans-68" d="M 3513 2113 
L 3513 0 
L 2938 0 
L 2938 2094 
Q 2938 2591 2744 2837 
Q 2550 3084 2163 3084 
Q 1697 3084 1428 2787 
Q 1159 2491 1159 1978 
L 1159 0 
L 581 0 
L 581 4863 
L 1159 4863 
L 1159 2956 
Q 1366 3272 1645 3428 
Q 1925 3584 2291 3584 
Q 2894 3584 3203 3211 
Q 3513 2838 3513 2113 
z
" transform="scale(0.015625)"/>
       <path id="DejaVuSans-6f" d="M 1959 3097 
Q 1497 3097 1228 2736 
Q 959 2375 959 1747 
Q 959 1119 1226 758 
Q 1494 397 1959 397 
Q 2419 397 2687 759 
Q 2956 1122 2956 1747 
Q 2956 2369 2687 2733 
Q 2419 3097 1959 3097 
z
M 1959 3584 
Q 2709 3584 3137 3096 
Q 3566 2609 3566 1747 
Q 3566 888 3137 398 
Q 2709 -91 1959 -91 
Q 1206 -91 779 398 
Q 353 888 353 1747 
Q 353 2609 779 3096 
Q 1206 3584 1959 3584 
z
" transform="scale(0.015625)"/>
       <path id="DejaVuSans-20" transform="scale(0.015625)"/>
       <path id="DejaVuSans-28" d="M 1984 4856 
Q 1566 4138 1362 3434 
Q 1159 2731 1159 2009 
Q 1159 1288 1364 580 
Q 1569 -128 1984 -844 
L 1484 -844 
Q 1016 -109 783 600 
Q 550 1309 550 2009 
Q 550 2706 781 3412 
Q 1013 4119 1484 4856 
L 1984 4856 
z
" transform="scale(0.015625)"/>
       <path id="DejaVuSans-53" d="M 3425 4513 
L 3425 3897 
Q 3066 4069 2747 4153 
Q 2428 4238 2131 4238 
Q 1616 4238 1336 4038 
Q 1056 3838 1056 3469 
Q 1056 3159 1242 3001 
Q 1428 2844 1947 2747 
L 2328 2669 
Q 3034 2534 3370 2195 
Q 3706 1856 3706 1288 
Q 3706 609 3251 259 
Q 2797 -91 1919 -91 
Q 1588 -91 1214 -16 
Q 841 59 441 206 
L 441 856 
Q 825 641 1194 531 
Q 1563 422 1919 422 
Q 2459 422 2753 634 
Q 3047 847 3047 1241 
Q 3047 1584 2836 1778 
Q 2625 1972 2144 2069 
L 1759 2144 
Q 1053 2284 737 2584 
Q 422 2884 422 3419 
Q 422 4038 858 4394 
Q 1294 4750 2059 4750 
Q 2388 4750 2728 4690 
Q 3069 4631 3425 4513 
z
" transform="scale(0.015625)"/>
       <path id="DejaVuSans-61" d="M 2194 1759 
Q 1497 1759 1228 1600 
Q 959 1441 959 1056 
Q 959 750 1161 570 
Q 1363 391 1709 391 
Q 2188 391 2477 730 
Q 2766 1069 2766 1631 
L 2766 1759 
L 2194 1759 
z
M 3341 1997 
L 3341 0 
L 2766 0 
L 2766 531 
Q 2569 213 2275 61 
Q 1981 -91 1556 -91 
Q 1019 -91 701 211 
Q 384 513 384 1019 
Q 384 1609 779 1909 
Q 1175 2209 1959 2209 
L 2766 2209 
L 2766 2266 
Q 2766 2663 2505 2880 
Q 2244 3097 1772 3097 
Q 1472 3097 1187 3025 
Q 903 2953 641 2809 
L 641 3341 
Q 956 3463 1253 3523 
Q 1550 3584 1831 3584 
Q 2591 3584 2966 3190 
Q 3341 2797 3341 1997 
z
" transform="scale(0.015625)"/>
       <path id="DejaVuSans-6d" d="M 3328 2828 
Q 3544 3216 3844 3400 
Q 4144 3584 4550 3584 
Q 5097 3584 5394 3201 
Q 5691 2819 5691 2113 
L 5691 0 
L 5113 0 
L 5113 2094 
Q 5113 2597 4934 2840 
Q 4756 3084 4391 3084 
Q 3944 3084 3684 2787 
Q 3425 2491 3425 1978 
L 3425 0 
L 2847 0 
L 2847 2094 
Q 2847 2600 2669 2842 
Q 2491 3084 2119 3084 
Q 1678 3084 1418 2786 
Q 1159 2488 1159 1978 
L 1159 0 
L 581 0 
L 581 3500 
L 1159 3500 
L 1159 2956 
Q 1356 3278 1631 3431 
Q 1906 3584 2284 3584 
Q 2666 3584 2933 3390 
Q 3200 3197 3328 2828 
z
" transform="scale(0.015625)"/>
       <path id="DejaVuSans-70" d="M 1159 525 
L 1159 -1331 
L 581 -1331 
L 581 3500 
L 1159 3500 
L 1159 2969 
Q 1341 3281 1617 3432 
Q 1894 3584 2278 3584 
Q 2916 3584 3314 3078 
Q 3713 2572 3713 1747 
Q 3713 922 3314 415 
Q 2916 -91 2278 -91 
Q 1894 -91 1617 61 
Q 1341 213 1159 525 
z
M 3116 1747 
Q 3116 2381 2855 2742 
Q 2594 3103 2138 3103 
Q 1681 3103 1420 2742 
Q 1159 2381 1159 1747 
Q 1159 1113 1420 752 
Q 1681 391 2138 391 
Q 2594 391 2855 752 
Q 3116 1113 3116 1747 
z
" transform="scale(0.015625)"/>
       <path id="DejaVuSans-6c" d="M 603 4863 
L 1178 4863 
L 1178 0 
L 603 0 
L 603 4863 
z
" transform="scale(0.015625)"/>
       <path id="DejaVuSans-65" d="M 3597 1894 
L 3597 1613 
L 953 1613 
Q 991 1019 1311 708 
Q 1631 397 2203 397 
Q 2534 397 2845 478 
Q 3156 559 3463 722 
L 3463 178 
Q 3153 47 2828 -22 
Q 2503 -91 2169 -91 
Q 1331 -91 842 396 
Q 353 884 353 1716 
Q 353 2575 817 3079 
Q 1281 3584 2069 3584 
Q 2775 3584 3186 3129 
Q 3597 2675 3597 1894 
z
M 3022 2063 
Q 3016 2534 2758 2815 
Q 2500 3097 2075 3097 
Q 1594 3097 1305 2825 
Q 1016 2553 972 2059 
L 3022 2063 
z
" transform="scale(0.015625)"/>
       <path id="DejaVuSans-73" d="M 2834 3397 
L 2834 2853 
Q 2591 2978 2328 3040 
Q 2066 3103 1784 3103 
Q 1356 3103 1142 2972 
Q 928 2841 928 2578 
Q 928 2378 1081 2264 
Q 1234 2150 1697 2047 
L 1894 2003 
Q 2506 1872 2764 1633 
Q 3022 1394 3022 966 
Q 3022 478 2636 193 
Q 2250 -91 1575 -91 
Q 1294 -91 989 -36 
Q 684 19 347 128 
L 347 722 
Q 666 556 975 473 
Q 1284 391 1588 391 
Q 1994 391 2212 530 
Q 2431 669 2431 922 
Q 2431 1156 2273 1281 
Q 2116 1406 1581 1522 
L 1381 1569 
Q 847 1681 609 1914 
Q 372 2147 372 2553 
Q 372 3047 722 3315 
Q 1072 3584 1716 3584 
Q 2034 3584 2315 3537 
Q 2597 3491 2834 3397 
z
" transform="scale(0.015625)"/>
       <path id="DejaVuSans-29" d="M 513 4856 
L 1013 4856 
Q 1481 4119 1714 3412 
Q 1947 2706 1947 2009 
Q 1947 1309 1714 600 
Q 1481 -109 1013 -844 
L 513 -844 
Q 928 -128 1133 580 
Q 1338 1288 1338 2009 
Q 1338 2731 1133 3434 
Q 928 4138 513 4856 
z
" transform="scale(0.015625)"/>
      </defs>
      <use xlink:href="#DejaVuSans-45"/>
      <use xlink:href="#DejaVuSans-63" x="63.183594"/>
      <use xlink:href="#DejaVuSans-68" x="118.164062"/>
      <use xlink:href="#DejaVuSans-6f" x="181.542969"/>
      <use xlink:href="#DejaVuSans-20" x="242.724609"/>
      <use xlink:href="#DejaVuSans-28" x="274.511719"/>
      <use xlink:href="#DejaVuSans-53" x="313.525391"/>
      <use xlink:href="#DejaVuSans-61" x="377.001953"/>
      <use xlink:href="#DejaVuSans-6d" x="438.28125"/>
      <use xlink:href="#DejaVuSans-70" x="535.693359"/>
      <use xlink:href="#DejaVuSans-6c" x="599.169922"/>
      <use xlink:href="#DejaVuSans-65" x="626.953125"/>
      <use xlink:href="#DejaVuSans-73" x="688.476562"/>
      <use xlink:href="#DejaVuSans-29" x="740.576172"/>
     </g>
    </g>
   </g>
   <g id="matplotlib.axis_2">
    <g id="ytick_1">
     <g id="line2d_8">
      <defs>
       <path id="m966eaf99b6" d="M 0 0 
L -3.5 0 
" style="stroke: #000000; stroke-width: 0.8"/>
      </defs>
      <g>
       <use xlink:href="#m966eaf99b6" x="58.523438" y="168.54504" style="stroke: #000000; stroke-width: 0.8"/>
      </g>
     </g>
     <g id="text_9">
      <!-- −0.05 -->
      <g transform="translate(20.878125 172.344259) scale(0.1 -0.1)">
       <defs>
        <path id="DejaVuSans-2212" d="M 678 2272 
L 4684 2272 
L 4684 1741 
L 678 1741 
L 678 2272 
z
" transform="scale(0.015625)"/>
        <path id="DejaVuSans-2e" d="M 684 794 
L 1344 794 
L 1344 0 
L 684 0 
L 684 794 
z
" transform="scale(0.015625)"/>
        <path id="DejaVuSans-35" d="M 691 4666 
L 3169 4666 
L 3169 4134 
L 1269 4134 
L 1269 2991 
Q 1406 3038 1543 3061 
Q 1681 3084 1819 3084 
Q 2600 3084 3056 2656 
Q 3513 2228 3513 1497 
Q 3513 744 3044 326 
Q 2575 -91 1722 -91 
Q 1428 -91 1123 -41 
Q 819 9 494 109 
L 494 744 
Q 775 591 1075 516 
Q 1375 441 1709 441 
Q 2250 441 2565 725 
Q 2881 1009 2881 1497 
Q 2881 1984 2565 2268 
Q 2250 2553 1709 2553 
Q 1456 2553 1204 2497 
Q 953 2441 691 2322 
L 691 4666 
z
" transform="scale(0.015625)"/>
       </defs>
       <use xlink:href="#DejaVuSans-2212"/>
       <use xlink:href="#DejaVuSans-30" x="83.789062"/>
       <use xlink:href="#DejaVuSans-2e" x="147.412109"/>
       <use xlink:href="#DejaVuSans-30" x="179.199219"/>
       <use xlink:href="#DejaVuSans-35" x="242.822266"/>
      </g>
     </g>
    </g>
    <g id="ytick_2">
     <g id="line2d_9">
      <g>
       <use xlink:href="#m966eaf99b6" x="58.523438" y="135.786497" style="stroke: #000000; stroke-width: 0.8"/>
      </g>
     </g>
     <g id="text_10">
      <!-- 0.00 -->
      <g transform="translate(29.257813 139.585716) scale(0.1 -0.1)">
       <use xlink:href="#DejaVuSans-30"/>
       <use xlink:href="#DejaVuSans-2e" x="63.623047"/>
       <use xlink:href="#DejaVuSans-30" x="95.410156"/>
       <use xlink:href="#DejaVuSans-30" x="159.033203"/>
      </g>
     </g>
    </g>
    <g id="ytick_3">
     <g id="line2d_10">
      <g>
       <use xlink:href="#m966eaf99b6" x="58.523438" y="103.027954" style="stroke: #000000; stroke-width: 0.8"/>
      </g>
     </g>
     <g id="text_11">
      <!-- 0.05 -->
      <g transform="translate(29.257813 106.827173) scale(0.1 -0.1)">
       <use xlink:href="#DejaVuSans-30"/>
       <use xlink:href="#DejaVuSans-2e" x="63.623047"/>
       <use xlink:href="#DejaVuSans-30" x="95.410156"/>
       <use xlink:href="#DejaVuSans-35" x="159.033203"/>
      </g>
     </g>
    </g>
    <g id="ytick_4">
     <g id="line2d_11">
      <g>
       <use xlink:href="#m966eaf99b6" x="58.523438" y="70.269411" style="stroke: #000000; stroke-width: 0.8"/>
      </g>
     </g>
     <g id="text_12">
      <!-- 0.10 -->
      <g transform="translate(29.257813 74.068629) scale(0.1 -0.1)">
       <use xlink:href="#DejaVuSans-30"/>
       <use xlink:href="#DejaVuSans-2e" x="63.623047"/>
       <use xlink:href="#DejaVuSans-31" x="95.410156"/>
       <use xlink:href="#DejaVuSans-30" x="159.033203"/>
      </g>
     </g>
    </g>
    <g id="ytick_5">
     <g id="line2d_12">
      <g>
       <use xlink:href="#m966eaf99b6" x="58.523438" y="37.510867" style="stroke: #000000; stroke-width: 0.8"/>
      </g>
     </g>
     <g id="text_13">
      <!-- 0.15 -->
      <g transform="translate(29.257813 41.310086) scale(0.1 -0.1)">
       <use xlink:href="#DejaVuSans-30"/>
       <use xlink:href="#DejaVuSans-2e" x="63.623047"/>
       <use xlink:href="#DejaVuSans-31" x="95.410156"/>
       <use xlink:href="#DejaVuSans-35" x="159.033203"/>
      </g>
     </g>
    </g>
    <g id="text_14">
     <!-- Cepstrum Value -->
     <g transform="translate(14.798438 137.64) rotate(-90) scale(0.1 -0.1)">
      <defs>
       <path id="DejaVuSans-43" d="M 4122 4306 
L 4122 3641 
Q 3803 3938 3442 4084 
Q 3081 4231 2675 4231 
Q 1875 4231 1450 3742 
Q 1025 3253 1025 2328 
Q 1025 1406 1450 917 
Q 1875 428 2675 428 
Q 3081 428 3442 575 
Q 3803 722 4122 1019 
L 4122 359 
Q 3791 134 3420 21 
Q 3050 -91 2638 -91 
Q 1578 -91 968 557 
Q 359 1206 359 2328 
Q 359 3453 968 4101 
Q 1578 4750 2638 4750 
Q 3056 4750 3426 4639 
Q 3797 4528 4122 4306 
z
" transform="scale(0.015625)"/>
       <path id="DejaVuSans-74" d="M 1172 4494 
L 1172 3500 
L 2356 3500 
L 2356 3053 
L 1172 3053 
L 1172 1153 
Q 1172 725 1289 603 
Q 1406 481 1766 481 
L 2356 481 
L 2356 0 
L 1766 0 
Q 1100 0 847 248 
Q 594 497 594 1153 
L 594 3053 
L 172 3053 
L 172 3500 
L 594 3500 
L 594 4494 
L 1172 4494 
z
" transform="scale(0.015625)"/>
       <path id="DejaVuSans-72" d="M 2631 2963 
Q 2534 3019 2420 3045 
Q 2306 3072 2169 3072 
Q 1681 3072 1420 2755 
Q 1159 2438 1159 1844 
L 1159 0 
L 581 0 
L 581 3500 
L 1159 3500 
L 1159 2956 
Q 1341 3275 1631 3429 
Q 1922 3584 2338 3584 
Q 2397 3584 2469 3576 
Q 2541 3569 2628 3553 
L 2631 2963 
z
" transform="scale(0.015625)"/>
       <path id="DejaVuSans-75" d="M 544 1381 
L 544 3500 
L 1119 3500 
L 1119 1403 
Q 1119 906 1312 657 
Q 1506 409 1894 409 
Q 2359 409 2629 706 
Q 2900 1003 2900 1516 
L 2900 3500 
L 3475 3500 
L 3475 0 
L 2900 0 
L 2900 538 
Q 2691 219 2414 64 
Q 2138 -91 1772 -91 
Q 1169 -91 856 284 
Q 544 659 544 1381 
z
M 1991 3584 
L 1991 3584 
z
" transform="scale(0.015625)"/>
       <path id="DejaVuSans-56" d="M 1831 0 
L 50 4666 
L 709 4666 
L 2188 738 
L 3669 4666 
L 4325 4666 
L 2547 0 
L 1831 0 
z
" transform="scale(0.015625)"/>
      </defs>
      <use xlink:href="#DejaVuSans-43"/>
      <use xlink:href="#DejaVuSans-65" x="69.824219"/>
      <use xlink:href="#DejaVuSans-70" x="131.347656"/>
      <use xlink:href="#DejaVuSans-73" x="194.824219"/>
      <use xlink:href="#DejaVuSans-74" x="246.923828"/>
      <use xlink:href="#DejaVuSans-72" x="286.132812"/>
      <use xlink:href="#DejaVuSans-75" x="327.246094"/>
      <use xlink:href="#DejaVuSans-6d" x="390.625"/>
      <use xlink:href="#DejaVuSans-20" x="488.037109"/>
      <use xlink:href="#DejaVuSans-56" x="519.824219"/>
      <use xlink:href="#DejaVuSans-61" x="580.482422"/>
      <use xlink:href="#DejaVuSans-6c" x="641.761719"/>
      <use xlink:href="#DejaVuSans-75" x="669.544922"/>
      <use xlink:href="#DejaVuSans-65" x="732.923828"/>
     </g>
    </g>
   </g>
   <g id="line2d_13">
    <path d="M 73.741619 119.116417 
L 76.176528 130.036818 
L 78.611438 117.540132 
L 81.046347 121.292976 
L 83.481256 126.290504 
L 85.916165 130.067136 
L 88.351074 138.950655 
L 90.785983 134.3828 
L 93.220892 127.899762 
L 95.655801 132.400399 
L 98.09071 129.615985 
L 100.525619 124.072246 
L 102.960528 125.07197 
L 105.395438 127.466976 
L 107.830347 135.235469 
L 110.265256 134.509382 
L 112.700165 131.847197 
L 115.135074 127.69744 
L 117.569983 120.259895 
L 120.004892 125.278246 
L 122.439801 118.751865 
L 124.87471 133.271955 
L 127.309619 134.222064 
L 129.744528 147.027123 
L 132.179438 148.440565 
L 134.614347 146.419962 
L 137.049256 146.461308 
L 139.484165 137.905004 
L 141.919074 143.006946 
L 144.353983 128.266973 
L 146.788892 132.501716 
L 149.223801 135.984121 
L 151.65871 144.026628 
L 154.093619 143.308008 
L 156.528528 137.673951 
L 158.963438 143.55471 
L 161.398347 142.560659 
L 163.833256 133.688438 
L 166.268165 141.646419 
L 168.703074 145.790279 
L 171.137983 144.843495 
L 173.572892 144.581297 
L 176.007801 144.815929 
L 178.44271 140.864134 
L 180.877619 137.048352 
L 183.312528 137.43325 
L 185.747438 140.614855 
L 188.182347 137.537218 
L 190.617256 131.995886 
L 193.052165 134.132733 
L 195.487074 144.480902 
L 197.921983 141.43316 
L 200.356892 146.59304 
L 202.791801 148.37546 
L 205.22671 134.765417 
L 207.661619 141.734003 
L 210.096528 135.279364 
L 212.531438 136.732842 
L 214.966347 136.909564 
L 217.401256 137.580546 
L 219.836165 145.216112 
L 222.271074 147.041837 
L 224.705983 143.212037 
L 227.140892 139.245664 
L 229.575801 139.664561 
L 232.01071 130.969011 
L 234.445619 143.804694 
L 236.880528 144.892445 
L 239.315438 140.262335 
L 241.750347 135.846411 
L 244.185256 148.096869 
L 246.620165 142.317151 
L 249.055074 133.735667 
L 251.489983 138.965222 
L 253.924892 142.804145 
L 256.359801 143.689077 
L 258.79471 143.934252 
L 261.229619 148.113768 
L 263.664528 148.350305 
L 266.099438 143.930685 
L 268.534347 144.940621 
L 270.969256 140.646618 
L 273.404165 144.510666 
L 275.839074 138.315127 
L 278.273983 142.663616 
L 280.708892 144.803379 
L 283.143801 139.903892 
L 285.57871 144.313588 
L 288.013619 137.763899 
L 290.448528 138.211285 
L 292.883438 136.494657 
L 295.318347 135.809739 
L 297.753256 127.713784 
L 300.188165 134.175959 
L 302.623074 139.928898 
L 305.057983 134.228298 
L 307.492892 136.588778 
L 309.927801 134.451981 
L 312.36271 142.783721 
L 314.797619 130.92832 
L 317.232528 132.992753 
L 319.667438 138.651563 
L 322.102347 142.936143 
L 324.537256 131.985298 
L 326.972165 153.165122 
L 329.407074 148.495025 
L 331.841983 142.371551 
L 334.276892 145.06208 
L 336.711801 140.100272 
L 339.14671 138.708162 
L 341.581619 140.5004 
L 344.016528 146.776245 
L 346.451438 140.872769 
L 348.886347 140.910805 
L 351.321256 140.494392 
L 353.756165 148.043628 
L 356.191074 147.105764 
L 358.625983 142.134426 
L 361.060892 143.36422 
L 363.495801 141.088789 
L 365.93071 142.669722 
L 368.365619 150.876957 
L 370.800528 145.678075 
L 373.235438 139.794713 
L 375.670347 140.906145 
L 378.105256 138.442503 
" clip-path="url(#p2c66aab7f7)" style="fill: none; stroke: #1f77b4; stroke-width: 1.5; stroke-linecap: square"/>
   </g>
   <g id="line2d_14">
    <path d="M 73.741619 116.283773 
L 76.176528 120.291728 
L 78.611438 114.586863 
L 81.046347 122.72579 
L 83.481256 125.40302 
L 85.916165 132.918621 
L 88.351074 143.568653 
L 90.785983 129.516121 
L 93.220892 135.279616 
L 95.655801 141.288953 
L 98.09071 111.597788 
L 100.525619 118.212053 
L 102.960528 121.37614 
L 105.395438 123.770543 
L 107.830347 131.244486 
L 110.265256 137.219584 
L 112.700165 140.681138 
L 115.135074 136.136813 
L 117.569983 121.396099 
L 120.004892 136.647873 
L 122.439801 125.702 
L 124.87471 128.612512 
L 127.309619 139.063052 
L 129.744528 136.791091 
L 132.179438 132.500475 
L 134.614347 30.55243 
L 137.049256 128.785935 
L 139.484165 135.015246 
L 141.919074 145.978975 
L 144.353983 129.041093 
L 146.788892 134.586218 
L 149.223801 141.187279 
L 151.65871 143.263876 
L 154.093619 138.527348 
L 156.528528 138.289596 
L 158.963438 146.577227 
L 161.398347 142.756106 
L 163.833256 139.809122 
L 166.268165 140.750552 
L 168.703074 151.070581 
L 171.137983 146.304072 
L 173.572892 148.2535 
L 176.007801 143.724821 
L 178.44271 146.063819 
L 180.877619 141.198317 
L 183.312528 140.732593 
L 185.747438 138.435903 
L 188.182347 136.68876 
L 190.617256 139.461294 
L 193.052165 140.685394 
L 195.487074 139.367849 
L 197.921983 137.163303 
L 200.356892 137.137714 
L 202.791801 138.509202 
L 205.22671 139.922316 
L 207.661619 140.260985 
L 210.096528 134.235438 
L 212.531438 142.453227 
L 214.966347 133.419933 
L 217.401256 141.186874 
L 219.836165 137.316847 
L 222.271074 138.601599 
L 224.705983 134.30233 
L 227.140892 127.610676 
L 229.575801 139.396562 
L 232.01071 134.205186 
L 234.445619 135.321881 
L 236.880528 140.501345 
L 239.315438 146.024785 
L 241.750347 146.207449 
L 244.185256 140.939982 
L 246.620165 148.393591 
L 249.055074 141.735502 
L 251.489983 143.681749 
L 253.924892 140.670414 
L 256.359801 166.645398 
L 258.79471 143.837086 
L 261.229619 141.105595 
L 263.664528 142.523341 
L 266.099438 138.358346 
L 268.534347 141.971374 
L 270.969256 142.437839 
L 273.404165 145.053341 
L 275.839074 143.190167 
L 278.273983 151.010695 
L 280.708892 140.719535 
L 283.143801 144.11575 
L 285.57871 142.093498 
L 288.013619 137.429695 
L 290.448528 140.166868 
L 292.883438 133.18976 
L 295.318347 137.817487 
L 297.753256 132.067472 
L 300.188165 139.469895 
L 302.623074 136.302623 
L 305.057983 138.508639 
L 307.492892 133.391193 
L 309.927801 138.314518 
L 312.36271 132.15484 
L 314.797619 129.74838 
L 317.232528 126.607162 
L 319.667438 126.609139 
L 322.102347 139.683072 
L 324.537256 140.499165 
L 326.972165 149.050072 
L 329.407074 149.88057 
L 331.841983 142.803742 
L 334.276892 153.171579 
L 336.711801 143.301128 
L 339.14671 148.618012 
L 341.581619 138.391518 
L 344.016528 139.305455 
L 346.451438 145.363391 
L 348.886347 145.926862 
L 351.321256 143.375186 
L 353.756165 145.037731 
L 356.191074 140.276878 
L 358.625983 141.276599 
L 361.060892 140.145669 
L 363.495801 132.700971 
L 365.93071 142.348633 
L 368.365619 141.025307 
L 370.800528 139.296949 
L 373.235438 139.554756 
L 375.670347 141.10149 
L 378.105256 137.773873 
" clip-path="url(#p2c66aab7f7)" style="fill: none; stroke: #ff7f0e; stroke-width: 1.5; stroke-linecap: square"/>
   </g>
   <g id="line2d_15">
    <path d="M 73.741619 136.76727 
L 76.176528 134.576057 
L 78.611438 121.264805 
L 81.046347 129.763006 
L 83.481256 137.572876 
L 85.916165 138.030261 
L 88.351074 148.469251 
L 90.785983 133.848512 
L 93.220892 125.521887 
L 95.655801 134.298312 
L 98.09071 122.916663 
L 100.525619 119.758116 
L 102.960528 132.047893 
L 105.395438 123.134011 
L 107.830347 130.303999 
L 110.265256 136.068438 
L 112.700165 130.693705 
L 115.135074 127.873424 
L 117.569983 128.827831 
L 120.004892 130.714529 
L 122.439801 128.181293 
L 124.87471 136.600687 
L 127.309619 136.211633 
L 129.744528 139.76248 
L 132.179438 146.108383 
L 134.614347 147.648061 
L 137.049256 139.241613 
L 139.484165 141.017497 
L 141.919074 139.438221 
L 144.353983 137.344065 
L 146.788892 135.68262 
L 149.223801 141.857974 
L 151.65871 139.558236 
L 154.093619 138.259922 
L 156.528528 137.679695 
L 158.963438 139.47793 
L 161.398347 145.136808 
L 163.833256 140.183576 
L 166.268165 134.585553 
L 168.703074 139.234498 
L 171.137983 149.64367 
L 173.572892 150.70367 
L 176.007801 147.56393 
L 178.44271 148.322733 
L 180.877619 135.974581 
L 183.312528 137.218639 
L 185.747438 141.586763 
L 188.182347 146.818198 
L 190.617256 133.868185 
L 193.052165 118.543287 
L 195.487074 29.190852 
L 197.921983 126.232298 
L 200.356892 134.63954 
L 202.791801 153.691581 
L 205.22671 138.57396 
L 207.661619 139.81686 
L 210.096528 137.115419 
L 212.531438 136.890226 
L 214.966347 139.380339 
L 217.401256 143.584584 
L 219.836165 136.398703 
L 222.271074 136.730554 
L 224.705983 140.456296 
L 227.140892 142.520876 
L 229.575801 148.074728 
L 232.01071 142.980746 
L 234.445619 144.875763 
L 236.880528 148.782578 
L 239.315438 147.911102 
L 241.750347 148.754155 
L 244.185256 159.466249 
L 246.620165 145.799859 
L 249.055074 140.249341 
L 251.489983 145.51852 
L 253.924892 138.082268 
L 256.359801 141.925763 
L 258.79471 146.732429 
L 261.229619 140.340483 
L 263.664528 136.606115 
L 266.099438 145.896977 
L 268.534347 143.191218 
L 270.969256 140.558459 
L 273.404165 156.743392 
L 275.839074 146.289169 
L 278.273983 148.091824 
L 280.708892 147.185334 
L 283.143801 135.455229 
L 285.57871 138.173709 
L 288.013619 138.788632 
L 290.448528 139.807906 
L 292.883438 136.176712 
L 295.318347 142.973605 
L 297.753256 134.481696 
L 300.188165 137.769894 
L 302.623074 136.244777 
L 305.057983 139.28207 
L 307.492892 136.187344 
L 309.927801 133.543468 
L 312.36271 136.902044 
L 314.797619 138.893717 
L 317.232528 133.215633 
L 319.667438 137.674326 
L 322.102347 139.939997 
L 324.537256 143.280768 
L 326.972165 148.000223 
L 329.407074 153.271804 
L 331.841983 143.510905 
L 334.276892 147.895364 
L 336.711801 149.696303 
L 339.14671 138.243837 
L 341.581619 142.136292 
L 344.016528 148.025083 
L 346.451438 139.049196 
L 348.886347 139.853017 
L 351.321256 137.668079 
L 353.756165 143.778985 
L 356.191074 143.950029 
L 358.625983 141.312146 
L 361.060892 140.976865 
L 363.495801 144.609685 
L 365.93071 144.732877 
L 368.365619 144.673202 
L 370.800528 142.858346 
L 373.235438 147.991864 
L 375.670347 145.625424 
L 378.105256 156.944888 
" clip-path="url(#p2c66aab7f7)" style="fill: none; stroke: #2ca02c; stroke-width: 1.5; stroke-linecap: square"/>
   </g>
   <g id="line2d_16">
    <path d="M 73.741619 125.902519 
L 76.176528 125.047952 
L 78.611438 113.207829 
L 81.046347 121.706811 
L 83.481256 128.451179 
L 85.916165 130.877589 
L 88.351074 148.405606 
L 90.785983 148.712718 
L 93.220892 136.000297 
L 95.655801 135.50796 
L 98.09071 115.867211 
L 100.525619 111.59032 
L 102.960528 107.375692 
L 105.395438 123.216858 
L 107.830347 132.401404 
L 110.265256 128.412611 
L 112.700165 128.375833 
L 115.135074 133.913077 
L 117.569983 122.051377 
L 120.004892 129.406606 
L 122.439801 128.518789 
L 124.87471 129.411925 
L 127.309619 137.602172 
L 129.744528 143.341369 
L 132.179438 142.622687 
L 134.614347 141.912665 
L 137.049256 141.47835 
L 139.484165 144.69927 
L 141.919074 133.207627 
L 144.353983 123.871567 
L 146.788892 131.415666 
L 149.223801 142.254935 
L 151.65871 146.99621 
L 154.093619 146.318495 
L 156.528528 149.593877 
L 158.963438 139.494873 
L 161.398347 144.998214 
L 163.833256 145.439623 
L 166.268165 135.835964 
L 168.703074 158.409118 
L 171.137983 144.945833 
L 173.572892 152.468696 
L 176.007801 143.765352 
L 178.44271 146.276061 
L 180.877619 144.676586 
L 183.312528 133.017289 
L 185.747438 126.333014 
L 188.182347 128.646932 
L 190.617256 133.558712 
L 193.052165 132.552515 
L 195.487074 142.05801 
L 197.921983 144.042544 
L 200.356892 145.016876 
L 202.791801 151.269909 
L 205.22671 144.914768 
L 207.661619 140.403989 
L 210.096528 134.460267 
L 212.531438 134.65076 
L 214.966347 142.181904 
L 217.401256 140.400744 
L 219.836165 144.508982 
L 222.271074 144.939961 
L 224.705983 139.356895 
L 227.140892 136.139606 
L 229.575801 135.938967 
L 232.01071 130.982941 
L 234.445619 137.401755 
L 236.880528 142.519171 
L 239.315438 152.071641 
L 241.750347 144.351338 
L 244.185256 143.008422 
L 246.620165 148.65115 
L 249.055074 143.45879 
L 251.489983 142.074433 
L 253.924892 119.876838 
L 256.359801 31.215179 
L 258.79471 123.830591 
L 261.229619 148.30816 
L 263.664528 149.235575 
L 266.099438 140.812649 
L 268.534347 142.630432 
L 270.969256 140.411853 
L 273.404165 150.355902 
L 275.839074 141.635006 
L 278.273983 140.136019 
L 280.708892 145.757687 
L 283.143801 142.487942 
L 285.57871 138.490778 
L 288.013619 137.314053 
L 290.448528 135.365863 
L 292.883438 135.691747 
L 295.318347 135.775506 
L 297.753256 139.106933 
L 300.188165 137.552025 
L 302.623074 141.296556 
L 305.057983 141.415022 
L 307.492892 140.349399 
L 309.927801 136.855549 
L 312.36271 131.829097 
L 314.797619 129.593776 
L 317.232528 131.097608 
L 319.667438 129.845753 
L 322.102347 142.891029 
L 324.537256 124.498093 
L 326.972165 149.739734 
L 329.407074 152.941907 
L 331.841983 150.75309 
L 334.276892 154.655284 
L 336.711801 148.46241 
L 339.14671 141.153626 
L 341.581619 138.786537 
L 344.016528 144.507899 
L 346.451438 139.833149 
L 348.886347 144.624533 
L 351.321256 148.423795 
L 353.756165 140.656977 
L 356.191074 139.629539 
L 358.625983 137.638565 
L 361.060892 141.057195 
L 363.495801 137.192079 
L 365.93071 141.683396 
L 368.365619 142.359461 
L 370.800528 142.371068 
L 373.235438 139.986166 
L 375.670347 143.314777 
L 378.105256 135.700872 
" clip-path="url(#p2c66aab7f7)" style="fill: none; stroke: #d62728; stroke-width: 1.5; stroke-linecap: square"/>
   </g>
   <g id="patch_3">
    <path d="M 58.523438 173.518125 
L 58.523438 22.318125 
" style="fill: none; stroke: #000000; stroke-width: 0.8; stroke-linejoin: miter; stroke-linecap: square"/>
   </g>
   <g id="patch_4">
    <path d="M 393.323438 173.518125 
L 393.323438 22.318125 
" style="fill: none; stroke: #000000; stroke-width: 0.8; stroke-linejoin: miter; stroke-linecap: square"/>
   </g>
   <g id="patch_5">
    <path d="M 58.523438 173.518125 
L 393.323438 173.518125 
" style="fill: none; stroke: #000000; stroke-width: 0.8; stroke-linejoin: miter; stroke-linecap: square"/>
   </g>
   <g id="patch_6">
    <path d="M 58.523438 22.318125 
L 393.323438 22.318125 
" style="fill: none; stroke: #000000; stroke-width: 0.8; stroke-linejoin: miter; stroke-linecap: square"/>
   </g>
   <g id="text_15">
    <!-- Prince Jazz Cepstra for Rave Models Trained on Guitarset -->
    <g transform="translate(55.675313 16.318125) scale(0.12 -0.12)">
     <defs>
      <path id="DejaVuSans-50" d="M 1259 4147 
L 1259 2394 
L 2053 2394 
Q 2494 2394 2734 2622 
Q 2975 2850 2975 3272 
Q 2975 3691 2734 3919 
Q 2494 4147 2053 4147 
L 1259 4147 
z
M 628 4666 
L 2053 4666 
Q 2838 4666 3239 4311 
Q 3641 3956 3641 3272 
Q 3641 2581 3239 2228 
Q 2838 1875 2053 1875 
L 1259 1875 
L 1259 0 
L 628 0 
L 628 4666 
z
" transform="scale(0.015625)"/>
      <path id="DejaVuSans-69" d="M 603 3500 
L 1178 3500 
L 1178 0 
L 603 0 
L 603 3500 
z
M 603 4863 
L 1178 4863 
L 1178 4134 
L 603 4134 
L 603 4863 
z
" transform="scale(0.015625)"/>
      <path id="DejaVuSans-6e" d="M 3513 2113 
L 3513 0 
L 2938 0 
L 2938 2094 
Q 2938 2591 2744 2837 
Q 2550 3084 2163 3084 
Q 1697 3084 1428 2787 
Q 1159 2491 1159 1978 
L 1159 0 
L 581 0 
L 581 3500 
L 1159 3500 
L 1159 2956 
Q 1366 3272 1645 3428 
Q 1925 3584 2291 3584 
Q 2894 3584 3203 3211 
Q 3513 2838 3513 2113 
z
" transform="scale(0.015625)"/>
      <path id="DejaVuSans-4a" d="M 628 4666 
L 1259 4666 
L 1259 325 
Q 1259 -519 939 -900 
Q 619 -1281 -91 -1281 
L -331 -1281 
L -331 -750 
L -134 -750 
Q 284 -750 456 -515 
Q 628 -281 628 325 
L 628 4666 
z
" transform="scale(0.015625)"/>
      <path id="DejaVuSans-7a" d="M 353 3500 
L 3084 3500 
L 3084 2975 
L 922 459 
L 3084 459 
L 3084 0 
L 275 0 
L 275 525 
L 2438 3041 
L 353 3041 
L 353 3500 
z
" transform="scale(0.015625)"/>
      <path id="DejaVuSans-66" d="M 2375 4863 
L 2375 4384 
L 1825 4384 
Q 1516 4384 1395 4259 
Q 1275 4134 1275 3809 
L 1275 3500 
L 2222 3500 
L 2222 3053 
L 1275 3053 
L 1275 0 
L 697 0 
L 697 3053 
L 147 3053 
L 147 3500 
L 697 3500 
L 697 3744 
Q 697 4328 969 4595 
Q 1241 4863 1831 4863 
L 2375 4863 
z
" transform="scale(0.015625)"/>
      <path id="DejaVuSans-52" d="M 2841 2188 
Q 3044 2119 3236 1894 
Q 3428 1669 3622 1275 
L 4263 0 
L 3584 0 
L 2988 1197 
Q 2756 1666 2539 1819 
Q 2322 1972 1947 1972 
L 1259 1972 
L 1259 0 
L 628 0 
L 628 4666 
L 2053 4666 
Q 2853 4666 3247 4331 
Q 3641 3997 3641 3322 
Q 3641 2881 3436 2590 
Q 3231 2300 2841 2188 
z
M 1259 4147 
L 1259 2491 
L 2053 2491 
Q 2509 2491 2742 2702 
Q 2975 2913 2975 3322 
Q 2975 3731 2742 3939 
Q 2509 4147 2053 4147 
L 1259 4147 
z
" transform="scale(0.015625)"/>
      <path id="DejaVuSans-76" d="M 191 3500 
L 800 3500 
L 1894 563 
L 2988 3500 
L 3597 3500 
L 2284 0 
L 1503 0 
L 191 3500 
z
" transform="scale(0.015625)"/>
      <path id="DejaVuSans-4d" d="M 628 4666 
L 1569 4666 
L 2759 1491 
L 3956 4666 
L 4897 4666 
L 4897 0 
L 4281 0 
L 4281 4097 
L 3078 897 
L 2444 897 
L 1241 4097 
L 1241 0 
L 628 0 
L 628 4666 
z
" transform="scale(0.015625)"/>
      <path id="DejaVuSans-64" d="M 2906 2969 
L 2906 4863 
L 3481 4863 
L 3481 0 
L 2906 0 
L 2906 525 
Q 2725 213 2448 61 
Q 2172 -91 1784 -91 
Q 1150 -91 751 415 
Q 353 922 353 1747 
Q 353 2572 751 3078 
Q 1150 3584 1784 3584 
Q 2172 3584 2448 3432 
Q 2725 3281 2906 2969 
z
M 947 1747 
Q 947 1113 1208 752 
Q 1469 391 1925 391 
Q 2381 391 2643 752 
Q 2906 1113 2906 1747 
Q 2906 2381 2643 2742 
Q 2381 3103 1925 3103 
Q 1469 3103 1208 2742 
Q 947 2381 947 1747 
z
" transform="scale(0.015625)"/>
      <path id="DejaVuSans-54" d="M -19 4666 
L 3928 4666 
L 3928 4134 
L 2272 4134 
L 2272 0 
L 1638 0 
L 1638 4134 
L -19 4134 
L -19 4666 
z
" transform="scale(0.015625)"/>
      <path id="DejaVuSans-47" d="M 3809 666 
L 3809 1919 
L 2778 1919 
L 2778 2438 
L 4434 2438 
L 4434 434 
Q 4069 175 3628 42 
Q 3188 -91 2688 -91 
Q 1594 -91 976 548 
Q 359 1188 359 2328 
Q 359 3472 976 4111 
Q 1594 4750 2688 4750 
Q 3144 4750 3555 4637 
Q 3966 4525 4313 4306 
L 4313 3634 
Q 3963 3931 3569 4081 
Q 3175 4231 2741 4231 
Q 1884 4231 1454 3753 
Q 1025 3275 1025 2328 
Q 1025 1384 1454 906 
Q 1884 428 2741 428 
Q 3075 428 3337 486 
Q 3600 544 3809 666 
z
" transform="scale(0.015625)"/>
     </defs>
     <use xlink:href="#DejaVuSans-50"/>
     <use xlink:href="#DejaVuSans-72" x="58.552734"/>
     <use xlink:href="#DejaVuSans-69" x="99.666016"/>
     <use xlink:href="#DejaVuSans-6e" x="127.449219"/>
     <use xlink:href="#DejaVuSans-63" x="190.828125"/>
     <use xlink:href="#DejaVuSans-65" x="245.808594"/>
     <use xlink:href="#DejaVuSans-20" x="307.332031"/>
     <use xlink:href="#DejaVuSans-4a" x="339.119141"/>
     <use xlink:href="#DejaVuSans-61" x="368.611328"/>
     <use xlink:href="#DejaVuSans-7a" x="429.890625"/>
     <use xlink:href="#DejaVuSans-7a" x="482.380859"/>
     <use xlink:href="#DejaVuSans-20" x="534.871094"/>
     <use xlink:href="#DejaVuSans-43" x="566.658203"/>
     <use xlink:href="#DejaVuSans-65" x="636.482422"/>
     <use xlink:href="#DejaVuSans-70" x="698.005859"/>
     <use xlink:href="#DejaVuSans-73" x="761.482422"/>
     <use xlink:href="#DejaVuSans-74" x="813.582031"/>
     <use xlink:href="#DejaVuSans-72" x="852.791016"/>
     <use xlink:href="#DejaVuSans-61" x="893.904297"/>
     <use xlink:href="#DejaVuSans-20" x="955.183594"/>
     <use xlink:href="#DejaVuSans-66" x="986.970703"/>
     <use xlink:href="#DejaVuSans-6f" x="1022.175781"/>
     <use xlink:href="#DejaVuSans-72" x="1083.357422"/>
     <use xlink:href="#DejaVuSans-20" x="1124.470703"/>
     <use xlink:href="#DejaVuSans-52" x="1156.257812"/>
     <use xlink:href="#DejaVuSans-61" x="1223.490234"/>
     <use xlink:href="#DejaVuSans-76" x="1284.769531"/>
     <use xlink:href="#DejaVuSans-65" x="1343.949219"/>
     <use xlink:href="#DejaVuSans-20" x="1405.472656"/>
     <use xlink:href="#DejaVuSans-4d" x="1437.259766"/>
     <use xlink:href="#DejaVuSans-6f" x="1523.539062"/>
     <use xlink:href="#DejaVuSans-64" x="1584.720703"/>
     <use xlink:href="#DejaVuSans-65" x="1648.197266"/>
     <use xlink:href="#DejaVuSans-6c" x="1709.720703"/>
     <use xlink:href="#DejaVuSans-73" x="1737.503906"/>
     <use xlink:href="#DejaVuSans-20" x="1789.603516"/>
     <use xlink:href="#DejaVuSans-54" x="1821.390625"/>
     <use xlink:href="#DejaVuSans-72" x="1867.724609"/>
     <use xlink:href="#DejaVuSans-61" x="1908.837891"/>
     <use xlink:href="#DejaVuSans-69" x="1970.117188"/>
     <use xlink:href="#DejaVuSans-6e" x="1997.900391"/>
     <use xlink:href="#DejaVuSans-65" x="2061.279297"/>
     <use xlink:href="#DejaVuSans-64" x="2122.802734"/>
     <use xlink:href="#DejaVuSans-20" x="2186.279297"/>
     <use xlink:href="#DejaVuSans-6f" x="2218.066406"/>
     <use xlink:href="#DejaVuSans-6e" x="2279.248047"/>
     <use xlink:href="#DejaVuSans-20" x="2342.626953"/>
     <use xlink:href="#DejaVuSans-47" x="2374.414062"/>
     <use xlink:href="#DejaVuSans-75" x="2451.904297"/>
     <use xlink:href="#DejaVuSans-69" x="2515.283203"/>
     <use xlink:href="#DejaVuSans-74" x="2543.066406"/>
     <use xlink:href="#DejaVuSans-61" x="2582.275391"/>
     <use xlink:href="#DejaVuSans-72" x="2643.554688"/>
     <use xlink:href="#DejaVuSans-73" x="2684.667969"/>
     <use xlink:href="#DejaVuSans-65" x="2736.767578"/>
     <use xlink:href="#DejaVuSans-74" x="2798.291016"/>
    </g>
   </g>
   <g id="legend_1">
    <g id="patch_7">
     <path d="M 288.360938 89.030625 
L 386.323438 89.030625 
Q 388.323438 89.030625 388.323438 87.030625 
L 388.323438 29.318125 
Q 388.323438 27.318125 386.323438 27.318125 
L 288.360938 27.318125 
Q 286.360938 27.318125 286.360938 29.318125 
L 286.360938 87.030625 
Q 286.360938 89.030625 288.360938 89.030625 
z
" style="fill: #ffffff; opacity: 0.8; stroke: #cccccc; stroke-linejoin: miter"/>
    </g>
    <g id="line2d_17">
     <path d="M 290.360938 35.416562 
L 300.360938 35.416562 
L 310.360938 35.416562 
" style="fill: none; stroke: #1f77b4; stroke-width: 1.5; stroke-linecap: square"/>
    </g>
    <g id="text_16">
     <!-- Clean -->
     <g transform="translate(318.360938 38.916562) scale(0.1 -0.1)">
      <use xlink:href="#DejaVuSans-43"/>
      <use xlink:href="#DejaVuSans-6c" x="69.824219"/>
      <use xlink:href="#DejaVuSans-65" x="97.607422"/>
      <use xlink:href="#DejaVuSans-61" x="159.130859"/>
      <use xlink:href="#DejaVuSans-6e" x="220.410156"/>
     </g>
    </g>
    <g id="line2d_18">
     <path d="M 290.360938 50.094687 
L 300.360938 50.094687 
L 310.360938 50.094687 
" style="fill: none; stroke: #ff7f0e; stroke-width: 1.5; stroke-linecap: square"/>
    </g>
    <g id="text_17">
     <!-- 50   (z=13.4) -->
     <g transform="translate(318.360938 53.594687) scale(0.1 -0.1)">
      <defs>
       <path id="DejaVuSans-3d" d="M 678 2906 
L 4684 2906 
L 4684 2381 
L 678 2381 
L 678 2906 
z
M 678 1631 
L 4684 1631 
L 4684 1100 
L 678 1100 
L 678 1631 
z
" transform="scale(0.015625)"/>
       <path id="DejaVuSans-33" d="M 2597 2516 
Q 3050 2419 3304 2112 
Q 3559 1806 3559 1356 
Q 3559 666 3084 287 
Q 2609 -91 1734 -91 
Q 1441 -91 1130 -33 
Q 819 25 488 141 
L 488 750 
Q 750 597 1062 519 
Q 1375 441 1716 441 
Q 2309 441 2620 675 
Q 2931 909 2931 1356 
Q 2931 1769 2642 2001 
Q 2353 2234 1838 2234 
L 1294 2234 
L 1294 2753 
L 1863 2753 
Q 2328 2753 2575 2939 
Q 2822 3125 2822 3475 
Q 2822 3834 2567 4026 
Q 2313 4219 1838 4219 
Q 1578 4219 1281 4162 
Q 984 4106 628 3988 
L 628 4550 
Q 988 4650 1302 4700 
Q 1616 4750 1894 4750 
Q 2613 4750 3031 4423 
Q 3450 4097 3450 3541 
Q 3450 3153 3228 2886 
Q 3006 2619 2597 2516 
z
" transform="scale(0.015625)"/>
      </defs>
      <use xlink:href="#DejaVuSans-35"/>
      <use xlink:href="#DejaVuSans-30" x="63.623047"/>
      <use xlink:href="#DejaVuSans-20" x="127.246094"/>
      <use xlink:href="#DejaVuSans-20" x="159.033203"/>
      <use xlink:href="#DejaVuSans-20" x="190.820312"/>
      <use xlink:href="#DejaVuSans-28" x="222.607422"/>
      <use xlink:href="#DejaVuSans-7a" x="261.621094"/>
      <use xlink:href="#DejaVuSans-3d" x="314.111328"/>
      <use xlink:href="#DejaVuSans-31" x="397.900391"/>
      <use xlink:href="#DejaVuSans-33" x="461.523438"/>
      <use xlink:href="#DejaVuSans-2e" x="525.146484"/>
      <use xlink:href="#DejaVuSans-34" x="556.933594"/>
      <use xlink:href="#DejaVuSans-29" x="620.556641"/>
     </g>
    </g>
    <g id="line2d_19">
     <path d="M 290.360938 64.772812 
L 300.360938 64.772812 
L 310.360938 64.772812 
" style="fill: none; stroke: #2ca02c; stroke-width: 1.5; stroke-linecap: square"/>
    </g>
    <g id="text_18">
     <!-- 75   (z=15.1) -->
     <g transform="translate(318.360938 68.272812) scale(0.1 -0.1)">
      <defs>
       <path id="DejaVuSans-37" d="M 525 4666 
L 3525 4666 
L 3525 4397 
L 1831 0 
L 1172 0 
L 2766 4134 
L 525 4134 
L 525 4666 
z
" transform="scale(0.015625)"/>
      </defs>
      <use xlink:href="#DejaVuSans-37"/>
      <use xlink:href="#DejaVuSans-35" x="63.623047"/>
      <use xlink:href="#DejaVuSans-20" x="127.246094"/>
      <use xlink:href="#DejaVuSans-20" x="159.033203"/>
      <use xlink:href="#DejaVuSans-20" x="190.820312"/>
      <use xlink:href="#DejaVuSans-28" x="222.607422"/>
      <use xlink:href="#DejaVuSans-7a" x="261.621094"/>
      <use xlink:href="#DejaVuSans-3d" x="314.111328"/>
      <use xlink:href="#DejaVuSans-31" x="397.900391"/>
      <use xlink:href="#DejaVuSans-35" x="461.523438"/>
      <use xlink:href="#DejaVuSans-2e" x="525.146484"/>
      <use xlink:href="#DejaVuSans-31" x="556.933594"/>
      <use xlink:href="#DejaVuSans-29" x="620.556641"/>
     </g>
    </g>
    <g id="line2d_20">
     <path d="M 290.360938 79.450937 
L 300.360938 79.450937 
L 310.360938 79.450937 
" style="fill: none; stroke: #d62728; stroke-width: 1.5; stroke-linecap: square"/>
    </g>
    <g id="text_19">
     <!-- 100 (z=11.8) -->
     <g transform="translate(318.360938 82.950937) scale(0.1 -0.1)">
      <use xlink:href="#DejaVuSans-31"/>
      <use xlink:href="#DejaVuSans-30" x="63.623047"/>
      <use xlink:href="#DejaVuSans-30" x="127.246094"/>
      <use xlink:href="#DejaVuSans-20" x="190.869141"/>
      <use xlink:href="#DejaVuSans-28" x="222.65625"/>
      <use xlink:href="#DejaVuSans-7a" x="261.669922"/>
      <use xlink:href="#DejaVuSans-3d" x="314.160156"/>
      <use xlink:href="#DejaVuSans-31" x="397.949219"/>
      <use xlink:href="#DejaVuSans-31" x="461.572266"/>
      <use xlink:href="#DejaVuSans-2e" x="525.195312"/>
      <use xlink:href="#DejaVuSans-38" x="556.982422"/>
      <use xlink:href="#DejaVuSans-29" x="620.605469"/>
     </g>
    </g>
   </g>
  </g>
 </g>
 <defs>
  <clipPath id="p2c66aab7f7">
   <rect x="58.523438" y="22.318125" width="334.8" height="151.2"/>
  </clipPath>
 </defs>
</svg>
